<svg xmlns="http://www.w3.org/2000/svg" width="145.955" height="47" viewBox="0 0 145.955 47">
	<g id="Group_16767" data-name="Group 16767" transform="translate(-375 -1777)">
		<g id="Group_16066" data-name="Group 16066" transform="translate(376.621 1777)">
			<path id="Path_17339" data-name="Path 17339"
				d="M166.387,52.043l2.377-.208h.643a1.06,1.06,0,0,1,.772.3,1.015,1.015,0,0,1,.3.763V54.75a.947.947,0,0,1-.3.685,1.332,1.332,0,0,1-.772.373,24.948,24.948,0,0,1-4.615.346q-7.461,0-7.461-7.807V32a1.046,1.046,0,0,1,.3-.772,1.023,1.023,0,0,1,.754-.3h3.887a1.022,1.022,0,0,1,.754.3,1.046,1.046,0,0,1,.3.772v5.8h4.841a1.043,1.043,0,0,1,.754.294,1.019,1.019,0,0,1,.3.764V40.92a1.013,1.013,0,0,1-.3.763,1.038,1.038,0,0,1-.754.3h-4.841v6.368a4.059,4.059,0,0,0,.832,2.733A2.792,2.792,0,0,0,166.387,52.043Z"
				transform="translate(-157.331 -30.926)" fill="#fff" />
			<path id="Path_17340" data-name="Path 17340"
				d="M169.818,52.852a5.172,5.172,0,0,1-2.3-4.512,5.085,5.085,0,0,1,2.3-4.476,10.339,10.339,0,0,1,5.925-1.562h5.743a3.792,3.792,0,0,0-.85-2.827,4.334,4.334,0,0,0-2.976-.8,3.661,3.661,0,0,0-2.983,1.051,2.63,2.63,0,0,1-2.108,1.05h-2.585a1.047,1.047,0,0,1-.773-.3,1.024,1.024,0,0,1-.3-.754q0-4.981,9.456-4.98a10.885,10.885,0,0,1,6.627,1.847,6.642,6.642,0,0,1,2.5,5.717V53.043A1.012,1.012,0,0,1,186.43,54.1h-3.348a1.018,1.018,0,0,1-.764-.3,1.045,1.045,0,0,1-.294-.754V52.5a10.548,10.548,0,0,1-6.324,1.951A10.133,10.133,0,0,1,169.818,52.852Zm4.424-6.021a1.9,1.9,0,0,0-.7,1.526,1.925,1.925,0,0,0,.728,1.545,3.137,3.137,0,0,0,2.064.608,9.545,9.545,0,0,0,5.153-1.562V46.241H176.16A2.889,2.889,0,0,0,174.242,46.832Z"
				transform="translate(-152.771 -29.22)" fill="#fff" />
			<path id="Path_17341" data-name="Path 17341"
				d="M184.263,53.046V36.164a1.052,1.052,0,0,1,.3-.773,1.026,1.026,0,0,1,.756-.3h3.885a1.018,1.018,0,0,1,.764.3,1.064,1.064,0,0,1,.3.773v1.093a11.213,11.213,0,0,1,2.455-1.866,6.049,6.049,0,0,1,2.905-.65,6.774,6.774,0,0,1,6.125,3.331q3.227-3.348,6.62-3.34a7.131,7.131,0,0,1,5.36,2.047q1.969,2.039,1.97,6.307v9.96a1.012,1.012,0,0,1-1.06,1.058h-3.868a1.047,1.047,0,0,1-.773-.3,1.025,1.025,0,0,1-.3-.754v-9.96q0-4.165-3.018-4.147-1.839,0-3.8,2.655a10.782,10.782,0,0,1,.1,1.493v9.96a1.017,1.017,0,0,1-.3.763,1.038,1.038,0,0,1-.754.3h-3.869a1.044,1.044,0,0,1-.772-.3,1.025,1.025,0,0,1-.3-.754v-9.96q0-4.165-3.018-4.147-1.926,0-3.7,2.481V53.046a1.018,1.018,0,0,1-.3.763,1.042,1.042,0,0,1-.756.3h-3.885a1.01,1.01,0,0,1-1.058-1.058Z"
				transform="translate(-145.277 -29.222)" fill="#fff" />
			<path id="Path_17342" data-name="Path 17342"
				d="M217.985,52.043l2.377-.208H221a1.06,1.06,0,0,1,.772.3,1.015,1.015,0,0,1,.3.763V54.75a.947.947,0,0,1-.3.685,1.332,1.332,0,0,1-.772.373,24.947,24.947,0,0,1-4.615.346q-7.461,0-7.461-7.807V32a1.046,1.046,0,0,1,.3-.772,1.023,1.023,0,0,1,.754-.3h3.887a1.022,1.022,0,0,1,.754.3,1.046,1.046,0,0,1,.3.772v5.8h4.841a1.04,1.04,0,0,1,.754.294,1.018,1.018,0,0,1,.3.764V40.92a1.013,1.013,0,0,1-.3.763,1.036,1.036,0,0,1-.754.3h-4.841v6.368a4.059,4.059,0,0,0,.832,2.733A2.792,2.792,0,0,0,217.985,52.043Z"
				transform="translate(-134.237 -30.926)" fill="#fff" />
			<path id="Path_17343" data-name="Path 17343"
				d="M221.789,51.914q-2.673-2.532-2.672-7.295t2.688-7.322a10.384,10.384,0,0,1,7.461-2.559q4.773,0,7.443,2.49t2.672,7.14v.989a1.04,1.04,0,0,1-1.076,1.076H225.242a4.582,4.582,0,0,0,1.223,3.105,4.834,4.834,0,0,0,3.357.973,3.912,3.912,0,0,0,3.157-1.042,2.665,2.665,0,0,1,2.1-1.058h2.585a1.038,1.038,0,0,1,1.076,1.076q0,4.981-9.49,4.962Q224.461,54.448,221.789,51.914Zm3.418-9.143h8.067q-.174-4.1-4.017-4.1T225.207,42.771Z"
				transform="translate(-129.678 -29.22)" fill="#fff" />
			<path id="Path_17344" data-name="Path 17344"
				d="M235.321,53.046V36.164a1.047,1.047,0,0,1,.3-.773,1.025,1.025,0,0,1,.754-.3h3.887a1.018,1.018,0,0,1,.764.3,1.069,1.069,0,0,1,.294.773v1.093a11.278,11.278,0,0,1,2.455-1.866,6.059,6.059,0,0,1,2.907-.65,6.774,6.774,0,0,1,6.125,3.331q3.227-3.348,6.618-3.34a7.134,7.134,0,0,1,5.362,2.047q1.969,2.039,1.969,6.307v9.96A1.012,1.012,0,0,1,265.7,54.1h-3.869a1.046,1.046,0,0,1-.772-.3,1.025,1.025,0,0,1-.3-.754v-9.96q0-4.165-3.018-4.147-1.839,0-3.8,2.655a10.787,10.787,0,0,1,.1,1.493v9.96a1.017,1.017,0,0,1-.3.763,1.041,1.041,0,0,1-.754.3h-3.869a1.047,1.047,0,0,1-.773-.3,1.03,1.03,0,0,1-.3-.754v-9.96q0-4.165-3.02-4.147-1.926,0-3.7,2.481V53.046a1.022,1.022,0,0,1-.3.763,1.042,1.042,0,0,1-.756.3h-3.887a1.012,1.012,0,0,1-1.058-1.058Z"
				transform="translate(-122.425 -29.222)" fill="#fff" />
		</g>
		<g id="Group_16599" data-name="Group 16599" transform="translate(16.293 1156.458)">
			<path id="Path_18031" data-name="Path 18031"
				d="M358.736,666.668l1.673-6.764q.707-2.818,4.671-2.818h4.4a.549.549,0,0,1,.4.162.561.561,0,0,1,.164.414v9.052a.559.559,0,0,1-.568.568H367.4a.544.544,0,0,1-.4-.164.55.55,0,0,1-.164-.4v-7.377H365.08a1.583,1.583,0,0,0-1.646,1.367l-1.461,5.889a.921.921,0,0,1-.33.5.847.847,0,0,1-.526.19H359.21a.484.484,0,0,1-.5-.419A.6.6,0,0,1,358.736,666.668Z"
				transform="translate(0 0.069)" fill="#2dc84d" />
			<path id="Path_18032" data-name="Path 18032"
				d="M367.291,666.783v-9.052a.562.562,0,0,1,.164-.414.549.549,0,0,1,.4-.162h2.083a.55.55,0,0,1,.4.162.568.568,0,0,1,.164.414v3.331h1.367a4.258,4.258,0,0,1,1.661-3.047,6.194,6.194,0,0,1,3.782-1.046,5.294,5.294,0,0,1,3.8,1.353,6.127,6.127,0,0,1,0,7.865,5.327,5.327,0,0,1-3.818,1.35,6.085,6.085,0,0,1-3.8-1.084,4.388,4.388,0,0,1-1.642-3.139h-1.348v3.469a.551.551,0,0,1-.164.4.545.545,0,0,1-.4.163h-2.083a.559.559,0,0,1-.568-.568Zm12.038-4.53q0-3.172-2.153-3.172t-2.155,3.172q0,3.172,2.155,3.172T379.329,662.253Z"
				transform="translate(5.045)" fill="#2dc84d" />
			<path id="Path_18033" data-name="Path 18033"
				d="M377.147,666.714v-1.107a.555.555,0,0,1,.576-.576h.726l1.275-5.127q.707-2.818,4.669-2.818h4.223a.561.561,0,0,1,.414.162.567.567,0,0,1,.164.414v9.052a.55.55,0,0,1-.164.4.556.556,0,0,1-.414.164H377.723a.558.558,0,0,1-.414-.164A.549.549,0,0,1,377.147,666.714Zm4.344-1.683h4.484v-5.693h-1.683a1.634,1.634,0,0,0-1.712,1.367Z"
				transform="translate(10.837 0.069)" fill="#2dc84d" />
			<path id="Path_18034" data-name="Path 18034"
				d="M386.176,666.714v-9.052a.566.566,0,0,1,.162-.414.554.554,0,0,1,.4-.162h1.945a.554.554,0,0,1,.576.576v6.113l3.275-6.019a1.217,1.217,0,0,1,.456-.479,1.13,1.13,0,0,1,.6-.19h2.6a.557.557,0,0,1,.578.576v9.052a.541.541,0,0,1-.164.41.565.565,0,0,1-.414.159h-1.943a.54.54,0,0,1-.41-.164.559.559,0,0,1-.159-.4v-6.1l-3.274,6a1.35,1.35,0,0,1-.456.47,1.093,1.093,0,0,1-.6.2h-2.615a.544.544,0,0,1-.567-.568Z"
				transform="translate(16.144 0.069)" fill="#2dc84d" />
			<path id="Path_18035" data-name="Path 18035"
				d="M398.006,664.736a.539.539,0,0,1,.164-.408.551.551,0,0,1,.4-.159h1.4a1.1,1.1,0,0,1,.991.627,1.442,1.442,0,0,0,1.373.629h1.888q1.348,0,1.349-1.107t-1.349-1.1h-2.307a.554.554,0,0,1-.576-.576v-.967a.557.557,0,0,1,.576-.578h2.131a1.357,1.357,0,0,0,.926-.275.921.921,0,0,0,.311-.729.937.937,0,0,0-.311-.735,1.341,1.341,0,0,0-.926-.279h-1.712a1.565,1.565,0,0,0-.67.162,1.1,1.1,0,0,0-.513.47,1.086,1.086,0,0,1-.994.624h-1.388a.564.564,0,0,1-.413-.159.541.541,0,0,1-.164-.41,2.319,2.319,0,0,1,1.224-2.027,5.422,5.422,0,0,1,2.953-.772h1.87a5.814,5.814,0,0,1,3.112.721,2.412,2.412,0,0,1,1.148,2.191A2.2,2.2,0,0,1,407.17,662a2.715,2.715,0,0,1,1.618,2.586,2.473,2.473,0,0,1-1.092,2.247,6.079,6.079,0,0,1-3.252.7h-2.075a5.884,5.884,0,0,1-3.117-.762A2.311,2.311,0,0,1,398.006,664.736Z"
				transform="translate(24.096)" fill="#2dc84d" />
			<path id="Path_18036" data-name="Path 18036"
				d="M405.817,666.714v-9.052a.566.566,0,0,1,.162-.414.549.549,0,0,1,.4-.162h2.083a.545.545,0,0,1,.41.162.57.57,0,0,1,.159.414v3.331h4.074v-3.331a.567.567,0,0,1,.164-.414.561.561,0,0,1,.414-.162h2.074a.545.545,0,0,1,.41.162.577.577,0,0,1,.159.414v9.052a.556.556,0,0,1-.159.41.549.549,0,0,1-.41.159h-2.074a.559.559,0,0,1-.578-.568v-3.469h-4.074v3.469a.541.541,0,0,1-.164.41.553.553,0,0,1-.4.159h-2.083a.541.541,0,0,1-.567-.568Z"
				transform="translate(28.687 0.069)" fill="#2dc84d" />
			<path id="Path_18037" data-name="Path 18037"
				d="M414.748,666.681a2.774,2.774,0,0,1-1.232-2.418,2.727,2.727,0,0,1,1.232-2.4,5.541,5.541,0,0,1,3.177-.838h3.08a2.029,2.029,0,0,0-.457-1.516,2.327,2.327,0,0,0-1.594-.427,1.966,1.966,0,0,0-1.6.562,1.409,1.409,0,0,1-1.13.564h-1.386a.556.556,0,0,1-.414-.164.549.549,0,0,1-.162-.4q0-2.67,5.07-2.669a5.833,5.833,0,0,1,3.553.991,3.557,3.557,0,0,1,1.34,3.064v5.759a.544.544,0,0,1-.567.568h-1.8a.541.541,0,0,1-.41-.163.553.553,0,0,1-.159-.4V666.5a5.658,5.658,0,0,1-3.391,1.046A5.44,5.44,0,0,1,414.748,666.681Zm2.372-3.228a1.018,1.018,0,0,0-.376.818,1.033,1.033,0,0,0,.391.829,1.681,1.681,0,0,0,1.107.325,5.126,5.126,0,0,0,2.764-.837v-1.451h-2.856A1.551,1.551,0,0,0,417.12,663.453Z"
				transform="translate(33.212)" fill="#2dc84d" />
			<path id="Path_18038" data-name="Path 18038"
				d="M421.7,666.783v-9.052a.568.568,0,0,1,.164-.414.55.55,0,0,1,.4-.162h2.083a.55.55,0,0,1,.4.162.561.561,0,0,1,.164.414v3.331h1.367a4.259,4.259,0,0,1,1.661-3.047,6.2,6.2,0,0,1,3.782-1.046,5.294,5.294,0,0,1,3.8,1.353,6.127,6.127,0,0,1,0,7.865,5.327,5.327,0,0,1-3.819,1.35,6.085,6.085,0,0,1-3.8-1.084,4.388,4.388,0,0,1-1.642-3.139h-1.348v3.469a.558.558,0,0,1-.568.568h-2.083a.545.545,0,0,1-.4-.163A.551.551,0,0,1,421.7,666.783Zm12.038-4.53q0-3.172-2.153-3.172t-2.155,3.172q0,3.172,2.155,3.172T433.739,662.253Z"
				transform="translate(38.022)" fill="#2dc84d" />
			<path id="Path_18039" data-name="Path 18039"
				d="M431.674,658.769v-1.107a.557.557,0,0,1,.576-.576h9.164a.55.55,0,0,1,.41.162.575.575,0,0,1,.157.414v1.107a.558.558,0,0,1-.157.4.545.545,0,0,1-.41.164h-2.967v7.377a.559.559,0,0,1-.578.568H435.8a.559.559,0,0,1-.578-.568v-7.377H432.25a.555.555,0,0,1-.413-.164A.544.544,0,0,1,431.674,658.769Z"
				transform="translate(43.883 0.069)" fill="#2dc84d" />
		</g>
	</g>
</svg>