<svg class="desktop" xmlns="http://www.w3.org/2000/svg" width="150.002" height="43.849" viewBox="0 0 150.002 43.849">
	<g id="Group_16766" data-name="Group 16766" transform="translate(-374.998 -17)">
		<g id="Group_16648" data-name="Group 16648" transform="translate(-13 0)">
			<path id="Path_17351" data-name="Path 17351"
				d="M301.878,24.843l-4.548,4.548-2.4-1.2,5.316,5.316.051.052a2.541,2.541,0,0,1-3.593,3.593l-1.774-1.775a2.541,2.541,0,0,0-3.591,0l-1.8,1.8a5.081,5.081,0,0,0,0,7.186h0a2.539,2.539,0,0,1-3.591,3.591h0l-.012-.013-.012-.009c-.01-.01-.019-.022-.029-.034a10.161,10.161,0,0,1,.051-14.317l10.925-10.925a21.924,21.924,0,0,0-17.413,39.87l4.548-4.548,2.4,1.2-5.316-5.316-.052-.051a2.541,2.541,0,1,1,3.593-3.593l1.775,1.774a2.541,2.541,0,0,0,3.591,0l1.8-1.8a5.081,5.081,0,0,0,0-7.186v0a2.539,2.539,0,0,1,3.591-3.591h0l.012.012.01.009c.012.012.02.023.03.034a10.163,10.163,0,0,1-.052,14.318L284.465,64.713a21.924,21.924,0,0,0,17.413-39.87Z"
				transform="translate(119.253 -4.76)" fill="#fff" />
		</g>
		<g id="Group_16649" data-name="Group 16649" transform="translate(-3 0)">
			<g id="Group_16608" data-name="Group 16608" transform="translate(434.143 47.623)">
				<path id="Path_18031" data-name="Path 18031"
					d="M358.728,664.159l1.235-4.992q.522-2.08,3.448-2.08h3.247a.405.405,0,0,1,.3.12.413.413,0,0,1,.121.306v6.681a.412.412,0,0,1-.42.419h-1.538a.4.4,0,0,1-.3-.121.406.406,0,0,1-.121-.3v-5.445h-1.29a1.168,1.168,0,0,0-1.215,1.009l-1.078,4.347a.68.68,0,0,1-.244.368.624.624,0,0,1-.388.141h-1.407a.357.357,0,0,1-.371-.309A.447.447,0,0,1,358.728,664.159Z"
					transform="translate(-358.707 -656.949)" fill="#0a5f87" />
				<path id="Path_18032" data-name="Path 18032"
					d="M367.291,664.213v-6.681a.415.415,0,0,1,.121-.306.406.406,0,0,1,.3-.119h1.538a.406.406,0,0,1,.3.119.42.42,0,0,1,.121.306v2.459h1.009a3.143,3.143,0,0,1,1.226-2.249,4.571,4.571,0,0,1,2.791-.772,3.907,3.907,0,0,1,2.8,1,4.522,4.522,0,0,1,0,5.806,3.931,3.931,0,0,1-2.818,1,4.491,4.491,0,0,1-2.806-.8,3.239,3.239,0,0,1-1.212-2.317h-.995v2.561a.406.406,0,0,1-.121.3.4.4,0,0,1-.3.121h-1.538a.412.412,0,0,1-.419-.42Zm8.885-3.343q0-2.342-1.589-2.342T373,660.869q0,2.342,1.59,2.341T376.176,660.869Z"
					transform="translate(-357.231 -656.969)" fill="#0a5f87" />
				<path id="Path_18033" data-name="Path 18033"
					d="M377.147,664.193v-.817a.41.41,0,0,1,.425-.425h.536l.941-3.784q.522-2.08,3.447-2.08h3.117a.411.411,0,0,1,.427.425v6.681a.405.405,0,0,1-.121.3.41.41,0,0,1-.306.121h-8.04a.412.412,0,0,1-.306-.121A.4.4,0,0,1,377.147,664.193Zm3.206-1.242h3.309v-4.2h-1.242a1.206,1.206,0,0,0-1.263,1.009Z"
					transform="translate(-355.537 -656.949)" fill="#0a5f87" />
				<path id="Path_18034" data-name="Path 18034"
					d="M386.176,664.193v-6.681a.417.417,0,0,1,.12-.306.409.409,0,0,1,.3-.12h1.436a.409.409,0,0,1,.425.425v4.512l2.418-4.443a.9.9,0,0,1,.336-.354.833.833,0,0,1,.439-.141h1.922a.411.411,0,0,1,.427.425v6.681a.4.4,0,0,1-.121.3.418.418,0,0,1-.306.117h-1.434a.4.4,0,0,1-.3-.121.412.412,0,0,1-.117-.3v-4.5l-2.417,4.429a1,1,0,0,1-.336.347.808.808,0,0,1-.439.148h-1.93a.4.4,0,0,1-.418-.419Z"
					transform="translate(-353.985 -656.949)" fill="#0a5f87" />
				<path id="Path_18035" data-name="Path 18035"
					d="M398.006,662.7a.4.4,0,0,1,.121-.3.407.407,0,0,1,.3-.117h1.03a.811.811,0,0,1,.731.463,1.064,1.064,0,0,0,1.014.464h1.393q1,0,1-.817t-1-.811h-1.7a.409.409,0,0,1-.425-.425v-.714a.411.411,0,0,1,.425-.427h1.573a1,1,0,0,0,.683-.2.68.68,0,0,0,.23-.538.692.692,0,0,0-.23-.543.99.99,0,0,0-.683-.206H401.2a1.154,1.154,0,0,0-.495.12.814.814,0,0,0-.378.347.8.8,0,0,1-.734.461h-1.024a.416.416,0,0,1-.3-.117.4.4,0,0,1-.121-.3,1.713,1.713,0,0,1,.9-1.5,4,4,0,0,1,2.18-.569h1.381a4.291,4.291,0,0,1,2.3.532,1.78,1.78,0,0,1,.847,1.617,1.626,1.626,0,0,1-.981,1.566,2,2,0,0,1,1.194,1.909,1.825,1.825,0,0,1-.806,1.658,4.487,4.487,0,0,1-2.4.518h-1.532a4.343,4.343,0,0,1-2.3-.562A1.706,1.706,0,0,1,398.006,662.7Z"
					transform="translate(-351.213 -656.969)" fill="#0a5f87" />
				<path id="Path_18036" data-name="Path 18036"
					d="M405.817,664.193v-6.681a.417.417,0,0,1,.12-.306.405.405,0,0,1,.3-.12h1.538a.4.4,0,0,1,.3.12.42.42,0,0,1,.117.306v2.459H411.2v-2.459a.411.411,0,0,1,.427-.425h1.531a.4.4,0,0,1,.3.12.425.425,0,0,1,.117.306v6.681a.41.41,0,0,1-.117.3.406.406,0,0,1-.3.117h-1.531a.41.41,0,0,1-.306-.121.406.406,0,0,1-.121-.3v-2.561h-3.007v2.561a.4.4,0,0,1-.121.3.409.409,0,0,1-.3.117h-1.538a.4.4,0,0,1-.418-.419Z"
					transform="translate(-349.87 -656.949)" fill="#0a5f87" />
				<path id="Path_18037" data-name="Path 18037"
					d="M414.425,664.138a2.048,2.048,0,0,1-.909-1.785,2.012,2.012,0,0,1,.909-1.772,4.09,4.09,0,0,1,2.345-.619h2.273a1.5,1.5,0,0,0-.338-1.119,1.718,1.718,0,0,0-1.177-.315,1.451,1.451,0,0,0-1.181.415,1.04,1.04,0,0,1-.835.416h-1.023a.41.41,0,0,1-.306-.121.405.405,0,0,1-.12-.3q0-1.971,3.742-1.97a4.3,4.3,0,0,1,2.623.731,2.626,2.626,0,0,1,.989,2.262v4.251a.4.4,0,0,1-.418.42h-1.325a.4.4,0,0,1-.3-.121.408.408,0,0,1-.117-.3V664a4.177,4.177,0,0,1-2.5.772A4.015,4.015,0,0,1,414.425,664.138Zm1.751-2.383a.751.751,0,0,0-.278.6.763.763,0,0,0,.288.612,1.241,1.241,0,0,0,.817.24,3.784,3.784,0,0,0,2.04-.618v-1.071h-2.108A1.145,1.145,0,0,0,416.176,661.755Z"
					transform="translate(-348.546 -656.969)" fill="#0a5f87" />
				<path id="Path_18038" data-name="Path 18038"
					d="M421.7,664.213v-6.681a.419.419,0,0,1,.121-.306.406.406,0,0,1,.3-.119h1.538a.406.406,0,0,1,.3.119.415.415,0,0,1,.121.306v2.459h1.009a3.143,3.143,0,0,1,1.226-2.249,4.574,4.574,0,0,1,2.792-.772,3.908,3.908,0,0,1,2.8,1,4.522,4.522,0,0,1,0,5.806,3.932,3.932,0,0,1-2.818,1,4.491,4.491,0,0,1-2.806-.8,3.239,3.239,0,0,1-1.212-2.317h-1v2.561a.412.412,0,0,1-.419.42h-1.538a.4.4,0,0,1-.3-.121A.406.406,0,0,1,421.7,664.213Zm8.885-3.343q0-2.342-1.589-2.342t-1.59,2.342q0,2.342,1.59,2.341T430.586,660.869Z"
					transform="translate(-347.139 -656.969)" fill="#0a5f87" />
				<path id="Path_18039" data-name="Path 18039"
					d="M431.674,658.328v-.817a.411.411,0,0,1,.425-.425h6.764a.406.406,0,0,1,.3.12.424.424,0,0,1,.116.306v.817a.412.412,0,0,1-.116.3.4.4,0,0,1-.3.121h-2.19v5.445a.406.406,0,0,1-.121.3.41.41,0,0,1-.306.121h-1.531a.413.413,0,0,1-.427-.419v-5.445H432.1a.41.41,0,0,1-.3-.121A.4.4,0,0,1,431.674,658.328Z"
					transform="translate(-345.425 -656.949)" fill="#0a5f87" />
			</g>
			<g id="Group_16609" data-name="Group 16609" transform="translate(434.73 24)">
				<path id="Path_17339" data-name="Path 17339"
					d="M163.183,44.572l1.536-.135h.415a.685.685,0,0,1,.5.191.656.656,0,0,1,.2.493v1.2a.612.612,0,0,1-.2.442.861.861,0,0,1-.5.241,16.121,16.121,0,0,1-2.982.224q-4.821,0-4.821-5.045V31.621a.676.676,0,0,1,.2-.5.661.661,0,0,1,.487-.2h2.512a.661.661,0,0,1,.487.2.676.676,0,0,1,.2.5v3.746h3.128a.674.674,0,0,1,.487.19.658.658,0,0,1,.2.494v1.334a.655.655,0,0,1-.2.493.671.671,0,0,1-.487.191H161.21v4.115a2.623,2.623,0,0,0,.538,1.766A1.8,1.8,0,0,0,163.183,44.572Z"
					transform="translate(-157.331 -30.926)" fill="#fff" />
				<path id="Path_17340" data-name="Path 17340"
					d="M169,46.444a3.342,3.342,0,0,1-1.485-2.916A3.286,3.286,0,0,1,169,40.635a6.681,6.681,0,0,1,3.829-1.009h3.711a2.45,2.45,0,0,0-.549-1.827,2.8,2.8,0,0,0-1.923-.516,2.365,2.365,0,0,0-1.928.679,1.7,1.7,0,0,1-1.362.678h-1.671a.677.677,0,0,1-.5-.2.661.661,0,0,1-.2-.487q0-3.219,6.11-3.218a7.034,7.034,0,0,1,4.282,1.194,4.292,4.292,0,0,1,1.615,3.694v6.941a.654.654,0,0,1-.684.684h-2.164a.658.658,0,0,1-.494-.2.676.676,0,0,1-.19-.487v-.348a6.816,6.816,0,0,1-4.087,1.261A6.548,6.548,0,0,1,169,46.444Zm2.859-3.891a1.228,1.228,0,0,0-.454.986,1.244,1.244,0,0,0,.471,1,2.027,2.027,0,0,0,1.334.393,6.168,6.168,0,0,0,3.33-1.009V42.171H173.1A1.867,1.867,0,0,0,171.863,42.553Z"
					transform="translate(-157.989 -31.172)" fill="#fff" />
				<path id="Path_17341" data-name="Path 17341"
					d="M184.263,46.567V35.657a.68.68,0,0,1,.2-.5.663.663,0,0,1,.488-.2h2.511a.658.658,0,0,1,.494.2.687.687,0,0,1,.191.5v.706a7.247,7.247,0,0,1,1.586-1.206,3.909,3.909,0,0,1,1.877-.42,4.377,4.377,0,0,1,3.958,2.153,5.984,5.984,0,0,1,4.278-2.158,4.608,4.608,0,0,1,3.464,1.323,5.68,5.68,0,0,1,1.273,4.076v6.436a.654.654,0,0,1-.685.684h-2.5a.677.677,0,0,1-.5-.2.662.662,0,0,1-.2-.487V40.131q0-2.691-1.95-2.68-1.188,0-2.455,1.716a6.966,6.966,0,0,1,.067.964v6.436a.657.657,0,0,1-.2.493.671.671,0,0,1-.487.191h-2.5a.675.675,0,0,1-.5-.2.662.662,0,0,1-.2-.487V40.131q0-2.691-1.95-2.68a3.1,3.1,0,0,0-2.388,1.6v7.513a.658.658,0,0,1-.2.493.673.673,0,0,1-.488.191h-2.511a.653.653,0,0,1-.684-.684Z"
					transform="translate(-159.07 -31.172)" fill="#fff" />
				<path id="Path_17342" data-name="Path 17342"
					d="M214.781,44.572l1.536-.135h.415a.685.685,0,0,1,.5.191.656.656,0,0,1,.2.493v1.2a.612.612,0,0,1-.2.442.861.861,0,0,1-.5.241,16.12,16.12,0,0,1-2.982.224q-4.821,0-4.821-5.045V31.621a.676.676,0,0,1,.2-.5.661.661,0,0,1,.487-.2h2.512a.661.661,0,0,1,.487.2.676.676,0,0,1,.2.5v3.746h3.128a.672.672,0,0,1,.487.19.658.658,0,0,1,.2.494v1.334a.655.655,0,0,1-.2.493.669.669,0,0,1-.487.191h-3.128v4.115a2.623,2.623,0,0,0,.538,1.766A1.8,1.8,0,0,0,214.781,44.572Z"
					transform="translate(-160.663 -30.926)" fill="#fff" />
				<path id="Path_17343" data-name="Path 17343"
					d="M220.844,45.838a6.184,6.184,0,0,1-1.727-4.714,6.222,6.222,0,0,1,1.737-4.732,6.71,6.71,0,0,1,4.821-1.654,6.781,6.781,0,0,1,4.81,1.609,5.994,5.994,0,0,1,1.727,4.614V41.6a.672.672,0,0,1-.7.7h-8.442a2.962,2.962,0,0,0,.79,2.007,3.124,3.124,0,0,0,2.169.629,2.528,2.528,0,0,0,2.04-.674,1.722,1.722,0,0,1,1.356-.684H231.1a.671.671,0,0,1,.695.7q0,3.219-6.133,3.207A6.724,6.724,0,0,1,220.844,45.838Zm2.209-5.909h5.213q-.112-2.646-2.6-2.647T223.052,39.929Z"
					transform="translate(-161.321 -31.172)" fill="#fff" />
				<path id="Path_17344" data-name="Path 17344"
					d="M235.321,46.567V35.657a.677.677,0,0,1,.2-.5.662.662,0,0,1,.487-.2h2.512a.658.658,0,0,1,.494.2.69.69,0,0,1,.19.5v.706a7.286,7.286,0,0,1,1.586-1.206,3.915,3.915,0,0,1,1.878-.42,4.377,4.377,0,0,1,3.958,2.153,5.984,5.984,0,0,1,4.277-2.158,4.61,4.61,0,0,1,3.465,1.323,5.68,5.68,0,0,1,1.272,4.076v6.436a.654.654,0,0,1-.684.684h-2.5a.676.676,0,0,1-.5-.2.662.662,0,0,1-.2-.487V40.131q0-2.691-1.95-2.68-1.188,0-2.455,1.716a6.971,6.971,0,0,1,.067.964v6.436a.657.657,0,0,1-.2.493.672.672,0,0,1-.487.191h-2.5a.677.677,0,0,1-.5-.2.666.666,0,0,1-.2-.487V40.131q0-2.691-1.951-2.68a3.1,3.1,0,0,0-2.388,1.6v7.513a.661.661,0,0,1-.2.493.673.673,0,0,1-.488.191H236a.654.654,0,0,1-.684-.684Z"
					transform="translate(-162.368 -31.172)" fill="#fff" />
			</g>
		</g>
	</g>
</svg>