<svg class="mobile" xmlns="http://www.w3.org/2000/svg" width="97.627" height="32.689" viewBox="0 0 97.627 32.689">
	<g id="Group_16776" data-name="Group 16776" transform="translate(-431.143 -24)">
		<g id="Group_16649" data-name="Group 16649" transform="translate(431.143 24)">
			<g id="Group_16608" data-name="Group 16608" transform="translate(0 24.572)">
				<path id="Path_18031" data-name="Path 18031"
					d="M358.729,664.443l1.285-5.193q.543-2.163,3.586-2.164h3.378a.422.422,0,0,1,.311.124.43.43,0,0,1,.126.318v6.95a.429.429,0,0,1-.436.436h-1.6a.418.418,0,0,1-.311-.126.422.422,0,0,1-.126-.311v-5.664H363.6a1.215,1.215,0,0,0-1.264,1.05l-1.121,4.521a.707.707,0,0,1-.254.383.649.649,0,0,1-.4.146h-1.464a.372.372,0,0,1-.386-.322A.465.465,0,0,1,358.729,664.443Z"
					transform="translate(-358.707 -656.944)" fill="#0a5f87" />
				<path id="Path_18032" data-name="Path 18032"
					d="M367.291,664.5v-6.949a.432.432,0,0,1,.126-.318.422.422,0,0,1,.311-.124h1.6a.422.422,0,0,1,.311.124.436.436,0,0,1,.126.318v2.557h1.049a3.269,3.269,0,0,1,1.275-2.339,4.754,4.754,0,0,1,2.9-.8,4.064,4.064,0,0,1,2.917,1.039,4.7,4.7,0,0,1,0,6.039,4.089,4.089,0,0,1-2.932,1.036,4.672,4.672,0,0,1-2.918-.832,3.369,3.369,0,0,1-1.26-2.41h-1.035V664.5a.423.423,0,0,1-.126.311.418.418,0,0,1-.311.126h-1.6a.429.429,0,0,1-.436-.436Zm9.242-3.478q0-2.436-1.653-2.436t-1.654,2.436q0,2.436,1.654,2.435T376.533,661.026Z"
					transform="translate(-356.827 -656.969)" fill="#0a5f87" />
				<path id="Path_18033" data-name="Path 18033"
					d="M377.147,664.478v-.85a.426.426,0,0,1,.443-.443h.557l.979-3.936q.543-2.163,3.585-2.164h3.243a.428.428,0,0,1,.444.442v6.95a.422.422,0,0,1-.126.311.426.426,0,0,1-.318.126H377.59a.428.428,0,0,1-.318-.126A.421.421,0,0,1,377.147,664.478Zm3.335-1.292h3.442v-4.371h-1.292a1.255,1.255,0,0,0-1.314,1.05Z"
					transform="translate(-354.669 -656.944)" fill="#0a5f87" />
				<path id="Path_18034" data-name="Path 18034"
					d="M386.176,664.478v-6.95a.434.434,0,0,1,.124-.318.425.425,0,0,1,.311-.124H388.1a.426.426,0,0,1,.442.442v4.693l2.515-4.621a.935.935,0,0,1,.35-.368.867.867,0,0,1,.457-.146h2a.428.428,0,0,1,.444.442v6.95a.416.416,0,0,1-.126.315.435.435,0,0,1-.318.122h-1.492a.415.415,0,0,1-.315-.126.429.429,0,0,1-.122-.311v-4.685l-2.514,4.607a1.037,1.037,0,0,1-.35.361.84.84,0,0,1-.457.153h-2.008a.417.417,0,0,1-.435-.436Z"
					transform="translate(-352.692 -656.944)" fill="#0a5f87" />
				<path id="Path_18035" data-name="Path 18035"
					d="M398.006,662.932a.414.414,0,0,1,.125-.313.424.424,0,0,1,.31-.122h1.071a.843.843,0,0,1,.761.482,1.107,1.107,0,0,0,1.054.483h1.449q1.035,0,1.036-.85t-1.036-.844h-1.771a.425.425,0,0,1-.442-.442v-.742a.428.428,0,0,1,.442-.444h1.636a1.042,1.042,0,0,0,.711-.211.708.708,0,0,0,.239-.56.719.719,0,0,0-.239-.565,1.03,1.03,0,0,0-.711-.215h-1.314a1.2,1.2,0,0,0-.514.124.847.847,0,0,0-.394.361.834.834,0,0,1-.763.479h-1.065a.433.433,0,0,1-.317-.122.415.415,0,0,1-.126-.314,1.781,1.781,0,0,1,.94-1.557,4.164,4.164,0,0,1,2.267-.592h1.436a4.463,4.463,0,0,1,2.389.553,1.852,1.852,0,0,1,.881,1.682,1.692,1.692,0,0,1-1.02,1.629,2.085,2.085,0,0,1,1.242,1.986,1.9,1.9,0,0,1-.839,1.725,4.667,4.667,0,0,1-2.5.539h-1.593a4.517,4.517,0,0,1-2.393-.585A1.774,1.774,0,0,1,398.006,662.932Z"
					transform="translate(-349.334 -656.969)" fill="#0a5f87" />
				<path id="Path_18036" data-name="Path 18036"
					d="M405.817,664.478v-6.95a.434.434,0,0,1,.124-.318.422.422,0,0,1,.311-.124h1.6a.418.418,0,0,1,.315.124.437.437,0,0,1,.122.318v2.557h3.128v-2.557a.428.428,0,0,1,.444-.442h1.592a.418.418,0,0,1,.315.124.442.442,0,0,1,.122.318v6.95a.427.427,0,0,1-.122.315.422.422,0,0,1-.315.122H411.86a.426.426,0,0,1-.318-.126.422.422,0,0,1-.126-.311v-2.664h-3.128v2.664a.416.416,0,0,1-.126.315.426.426,0,0,1-.311.122h-1.6a.416.416,0,0,1-.435-.436Z"
					transform="translate(-347.623 -656.944)" fill="#0a5f87" />
				<path id="Path_18037" data-name="Path 18037"
					d="M414.462,664.426a2.13,2.13,0,0,1-.946-1.857,2.093,2.093,0,0,1,.946-1.843,4.254,4.254,0,0,1,2.439-.644h2.365a1.558,1.558,0,0,0-.351-1.164,1.788,1.788,0,0,0-1.224-.328,1.51,1.51,0,0,0-1.229.432,1.082,1.082,0,0,1-.868.433H414.53a.426.426,0,0,1-.318-.126.421.421,0,0,1-.124-.311q0-2.05,3.892-2.049a4.478,4.478,0,0,1,2.728.761,2.731,2.731,0,0,1,1.029,2.353V664.5a.418.418,0,0,1-.435.436h-1.379a.414.414,0,0,1-.314-.126.424.424,0,0,1-.122-.311v-.221a4.345,4.345,0,0,1-2.6.8A4.176,4.176,0,0,1,414.462,664.426Zm1.821-2.478a.781.781,0,0,0-.289.628.793.793,0,0,0,.3.636,1.291,1.291,0,0,0,.85.25,3.935,3.935,0,0,0,2.122-.642V661.7h-2.193A1.191,1.191,0,0,0,416.283,661.948Z"
					transform="translate(-345.937 -656.969)" fill="#0a5f87" />
				<path id="Path_18038" data-name="Path 18038"
					d="M421.7,664.5v-6.949a.436.436,0,0,1,.125-.318.422.422,0,0,1,.311-.124h1.6a.422.422,0,0,1,.311.124.431.431,0,0,1,.125.318v2.557h1.05a3.269,3.269,0,0,1,1.275-2.339,4.758,4.758,0,0,1,2.9-.8,4.065,4.065,0,0,1,2.917,1.039,4.7,4.7,0,0,1,0,6.039,4.09,4.09,0,0,1-2.932,1.036,4.672,4.672,0,0,1-2.918-.832,3.369,3.369,0,0,1-1.26-2.41h-1.035V664.5a.429.429,0,0,1-.436.436h-1.6a.418.418,0,0,1-.311-.126A.423.423,0,0,1,421.7,664.5Zm9.242-3.478q0-2.436-1.653-2.436t-1.654,2.436q0,2.436,1.654,2.435T430.943,661.026Z"
					transform="translate(-344.145 -656.969)" fill="#0a5f87" />
				<path id="Path_18039" data-name="Path 18039"
					d="M431.674,658.378v-.85a.428.428,0,0,1,.443-.442h7.036a.422.422,0,0,1,.314.124.441.441,0,0,1,.121.318v.85a.429.429,0,0,1-.121.311.419.419,0,0,1-.314.126h-2.278v5.664a.429.429,0,0,1-.444.436h-1.592a.429.429,0,0,1-.444-.436v-5.664h-2.278a.427.427,0,0,1-.317-.126A.418.418,0,0,1,431.674,658.378Z"
					transform="translate(-341.961 -656.944)" fill="#0a5f87" />
			</g>
			<g id="Group_16609" data-name="Group 16609" transform="translate(0.612)">
				<path id="Path_17339" data-name="Path 17339"
					d="M163.418,45.12l1.6-.14h.432a.713.713,0,0,1,.519.2.682.682,0,0,1,.2.513V46.94a.636.636,0,0,1-.2.46.9.9,0,0,1-.519.251,16.768,16.768,0,0,1-3.1.233q-5.015,0-5.015-5.248V31.649a.7.7,0,0,1,.2-.519.687.687,0,0,1,.507-.2h2.612a.687.687,0,0,1,.507.2.7.7,0,0,1,.2.519v3.9h3.254a.7.7,0,0,1,.507.2.685.685,0,0,1,.2.514v1.388a.681.681,0,0,1-.2.513.7.7,0,0,1-.507.2h-3.254v4.28a2.728,2.728,0,0,0,.559,1.837A1.877,1.877,0,0,0,163.418,45.12Z"
					transform="translate(-157.331 -30.926)" fill="#fff" />
				<path id="Path_17340" data-name="Path 17340"
					d="M169.064,46.914a3.477,3.477,0,0,1-1.545-3.033,3.418,3.418,0,0,1,1.545-3.009,6.949,6.949,0,0,1,3.982-1.05h3.86a2.549,2.549,0,0,0-.571-1.9,2.913,2.913,0,0,0-2-.537,2.46,2.46,0,0,0-2.005.706,1.768,1.768,0,0,1-1.417.705h-1.738a.7.7,0,0,1-.52-.2.688.688,0,0,1-.2-.507q0-3.348,6.356-3.347a7.317,7.317,0,0,1,4.454,1.242,4.465,4.465,0,0,1,1.679,3.843v7.22a.68.68,0,0,1-.711.711H177.98a.685.685,0,0,1-.514-.2.7.7,0,0,1-.2-.507V46.68a7.09,7.09,0,0,1-4.251,1.312A6.811,6.811,0,0,1,169.064,46.914Zm2.973-4.047a1.278,1.278,0,0,0-.472,1.026,1.294,1.294,0,0,0,.489,1.038,2.109,2.109,0,0,0,1.387.409,6.415,6.415,0,0,0,3.464-1.05V42.47h-3.58A1.942,1.942,0,0,0,172.038,42.867Z"
					transform="translate(-157.606 -31.029)" fill="#fff" />
				<path id="Path_17341" data-name="Path 17341"
					d="M184.263,47.042V35.694a.707.707,0,0,1,.2-.52.69.69,0,0,1,.508-.2h2.611a.684.684,0,0,1,.514.2.715.715,0,0,1,.2.52v.735a7.538,7.538,0,0,1,1.65-1.254,4.065,4.065,0,0,1,1.953-.437,4.553,4.553,0,0,1,4.117,2.239,6.225,6.225,0,0,1,4.45-2.245,4.793,4.793,0,0,1,3.6,1.376,5.908,5.908,0,0,1,1.324,4.24v6.695a.68.68,0,0,1-.712.711h-2.6a.7.7,0,0,1-.52-.2.689.689,0,0,1-.2-.507V40.348q0-2.8-2.029-2.788-1.236,0-2.554,1.785a7.244,7.244,0,0,1,.07,1v6.695a.684.684,0,0,1-.2.513.7.7,0,0,1-.507.2h-2.6a.7.7,0,0,1-.519-.2.689.689,0,0,1-.2-.507V40.348q0-2.8-2.029-2.788a3.229,3.229,0,0,0-2.484,1.668v7.815a.684.684,0,0,1-.2.513.7.7,0,0,1-.508.2h-2.611a.679.679,0,0,1-.711-.711Z"
					transform="translate(-158.058 -31.029)" fill="#fff" />
				<path id="Path_17342" data-name="Path 17342"
					d="M215.016,45.12l1.6-.14h.432a.713.713,0,0,1,.519.2.682.682,0,0,1,.2.513V46.94a.636.636,0,0,1-.2.46.9.9,0,0,1-.519.251,16.768,16.768,0,0,1-3.1.233q-5.015,0-5.015-5.248V31.649a.7.7,0,0,1,.2-.519.687.687,0,0,1,.507-.2h2.612a.687.687,0,0,1,.507.2.7.7,0,0,1,.2.519v3.9h3.254a.7.7,0,0,1,.507.2.685.685,0,0,1,.2.514v1.388a.681.681,0,0,1-.2.513.7.7,0,0,1-.507.2h-3.254v4.28a2.728,2.728,0,0,0,.559,1.837A1.877,1.877,0,0,0,215.016,45.12Z"
					transform="translate(-158.725 -30.926)" fill="#fff" />
				<path id="Path_17343" data-name="Path 17343"
					d="M220.913,46.283a6.433,6.433,0,0,1-1.8-4.9,6.472,6.472,0,0,1,1.807-4.922,6.98,6.98,0,0,1,5.015-1.72,7.053,7.053,0,0,1,5,1.674,6.235,6.235,0,0,1,1.8,4.8v.665a.7.7,0,0,1-.723.723h-8.781a3.08,3.08,0,0,0,.822,2.087,3.249,3.249,0,0,0,2.256.654,2.63,2.63,0,0,0,2.122-.7,1.791,1.791,0,0,1,1.411-.711h1.738a.7.7,0,0,1,.723.723q0,3.348-6.379,3.336A6.994,6.994,0,0,1,220.913,46.283Zm2.3-6.146h5.422q-.117-2.753-2.7-2.753T223.21,40.138Z"
					transform="translate(-159 -31.029)" fill="#fff" />
				<path id="Path_17344" data-name="Path 17344"
					d="M235.321,47.042V35.694a.7.7,0,0,1,.2-.52.689.689,0,0,1,.507-.2h2.612a.684.684,0,0,1,.514.2.718.718,0,0,1,.2.52v.735a7.579,7.579,0,0,1,1.65-1.254,4.072,4.072,0,0,1,1.954-.437,4.553,4.553,0,0,1,4.117,2.239,6.224,6.224,0,0,1,4.448-2.245,4.8,4.8,0,0,1,3.6,1.376,5.908,5.908,0,0,1,1.323,4.24v6.695a.68.68,0,0,1-.711.711h-2.6a.7.7,0,0,1-.519-.2.689.689,0,0,1-.2-.507V40.348q0-2.8-2.029-2.788-1.236,0-2.554,1.785a7.251,7.251,0,0,1,.07,1v6.695a.684.684,0,0,1-.2.513.7.7,0,0,1-.507.2h-2.6a.7.7,0,0,1-.52-.2.692.692,0,0,1-.2-.507V40.348q0-2.8-2.03-2.788a3.229,3.229,0,0,0-2.484,1.668v7.815a.687.687,0,0,1-.2.513.7.7,0,0,1-.508.2h-2.612a.68.68,0,0,1-.711-.711Z"
					transform="translate(-159.438 -31.029)" fill="#fff" />
			</g>
		</g>
	</g>
</svg>