<svg xmlns="http://www.w3.org/2000/svg" width="134.54" height="39.329" viewBox="0 0 134.54 39.329">
	<g id="Group_16981" data-name="Group 16981" transform="translate(-39 -13)">
		<g id="Group_16800" data-name="Group 16800" transform="translate(-336 -4)">
			<g id="Group_16648" data-name="Group 16648" transform="translate(375 17)">
				<path id="Path_17351" data-name="Path 17351"
					d="M298.463,24.525,294.384,28.6l-2.148-1.074L297,32.3l.046.047a2.279,2.279,0,0,1-3.223,3.223l-1.591-1.592a2.279,2.279,0,0,0-3.221,0L287.4,35.587a4.557,4.557,0,0,0,0,6.446h0a2.278,2.278,0,0,1-3.221,3.221h0l-.01-.011-.01-.008c-.009-.009-.017-.02-.026-.03a9.113,9.113,0,0,1,.046-12.841l9.8-9.8a19.664,19.664,0,0,0-15.619,35.76l4.079-4.079,2.149,1.074-4.768-4.768-.047-.046a2.279,2.279,0,0,1,3.223-3.223l1.592,1.591a2.279,2.279,0,0,0,3.221,0l1.613-1.613a4.557,4.557,0,0,0,0-6.446v0a2.278,2.278,0,0,1,3.221-3.221h0l.01.01.009.008c.01.01.018.021.027.03a9.115,9.115,0,0,1-.047,12.842l-9.8,9.8a19.664,19.664,0,0,0,15.619-35.761Z"
					transform="translate(-268.747 -21.761)" fill="#0a5f87" />
			</g>
			<g id="Group_16649" data-name="Group 16649" transform="translate(425.356 23.279)">
				<g id="Group_16608" data-name="Group 16608" transform="translate(0 21.188)">
					<path id="Path_18031" data-name="Path 18031"
						d="M358.726,663.43l1.108-4.478q.468-1.865,3.092-1.866h2.913a.363.363,0,0,1,.268.107.371.371,0,0,1,.108.274v5.993a.37.37,0,0,1-.376.376H364.46a.36.36,0,0,1-.268-.108.364.364,0,0,1-.108-.268v-4.884h-1.157a1.048,1.048,0,0,0-1.09.905l-.967,3.9a.61.61,0,0,1-.219.33.56.56,0,0,1-.348.126H359.04a.321.321,0,0,1-.333-.277A.4.4,0,0,1,358.726,663.43Z"
						transform="translate(-358.707 -656.963)" fill="#2dc84d" />
					<path id="Path_18032" data-name="Path 18032"
						d="M367.291,663.466v-5.992a.372.372,0,0,1,.108-.274.364.364,0,0,1,.268-.107h1.379a.364.364,0,0,1,.268.107.376.376,0,0,1,.108.274v2.205h.905a2.819,2.819,0,0,1,1.1-2.017,4.1,4.1,0,0,1,2.5-.693,3.5,3.5,0,0,1,2.515.9,4.056,4.056,0,0,1,0,5.207,3.526,3.526,0,0,1-2.528.893,4.029,4.029,0,0,1-2.516-.718,2.9,2.9,0,0,1-1.087-2.078h-.892v2.3a.364.364,0,0,1-.108.268.36.36,0,0,1-.268.108h-1.379a.37.37,0,0,1-.376-.376Zm7.97-3q0-2.1-1.425-2.1t-1.426,2.1q0,2.1,1.426,2.1T375.261,660.467Z"
						transform="translate(-358.268 -656.969)" fill="#2dc84d" />
					<path id="Path_18033" data-name="Path 18033"
						d="M377.147,663.46v-.733a.367.367,0,0,1,.382-.382h.48l.844-3.394q.468-1.865,3.091-1.866h2.8a.369.369,0,0,1,.383.382v5.993a.364.364,0,0,1-.108.268.368.368,0,0,1-.274.108h-7.212a.369.369,0,0,1-.274-.108A.363.363,0,0,1,377.147,663.46Zm2.876-1.114h2.968v-3.769h-1.114a1.082,1.082,0,0,0-1.133.905Z"
						transform="translate(-357.764 -656.963)" fill="#2dc84d" />
					<path id="Path_18034" data-name="Path 18034"
						d="M386.176,663.46v-5.993a.374.374,0,0,1,.107-.274.367.367,0,0,1,.268-.107h1.288a.367.367,0,0,1,.382.382v4.047l2.168-3.985a.805.805,0,0,1,.3-.317.747.747,0,0,1,.394-.126h1.724a.369.369,0,0,1,.383.382v5.993a.358.358,0,0,1-.108.271.375.375,0,0,1-.274.1h-1.287a.358.358,0,0,1-.271-.108.37.37,0,0,1-.1-.268v-4.04l-2.167,3.972a.9.9,0,0,1-.3.311.724.724,0,0,1-.394.132h-1.731a.36.36,0,0,1-.375-.376Z"
						transform="translate(-357.303 -656.963)" fill="#2dc84d" />
					<path id="Path_18035" data-name="Path 18035"
						d="M398.006,662.111a.357.357,0,0,1,.108-.27.365.365,0,0,1,.267-.105h.924a.727.727,0,0,1,.656.415.955.955,0,0,0,.909.416h1.25q.893,0,.893-.733t-.893-.728h-1.527a.367.367,0,0,1-.382-.381v-.64a.369.369,0,0,1,.382-.383H402a.9.9,0,0,0,.613-.182.61.61,0,0,0,.206-.482.62.62,0,0,0-.206-.487.889.889,0,0,0-.613-.185H400.87a1.035,1.035,0,0,0-.444.107.73.73,0,0,0-.339.311.719.719,0,0,1-.658.413h-.919a.374.374,0,0,1-.273-.105.358.358,0,0,1-.108-.271,1.536,1.536,0,0,1,.811-1.342,3.591,3.591,0,0,1,1.955-.511h1.238a3.849,3.849,0,0,1,2.06.477,1.6,1.6,0,0,1,.76,1.451,1.459,1.459,0,0,1-.88,1.4,1.8,1.8,0,0,1,1.071,1.712,1.637,1.637,0,0,1-.723,1.487,4.025,4.025,0,0,1-2.153.464h-1.374a3.9,3.9,0,0,1-2.063-.5A1.53,1.53,0,0,1,398.006,662.111Z"
						transform="translate(-356.036 -656.969)" fill="#2dc84d" />
					<path id="Path_18036" data-name="Path 18036"
						d="M405.817,663.46v-5.993a.374.374,0,0,1,.107-.274.363.363,0,0,1,.268-.107h1.379a.361.361,0,0,1,.271.107.377.377,0,0,1,.105.274v2.205h2.7v-2.205a.369.369,0,0,1,.383-.382H412.4a.361.361,0,0,1,.271.107.381.381,0,0,1,.105.274v5.993a.368.368,0,0,1-.105.271.364.364,0,0,1-.271.1h-1.373a.368.368,0,0,1-.274-.108.364.364,0,0,1-.108-.268v-2.3h-2.7v2.3a.359.359,0,0,1-.108.271.367.367,0,0,1-.268.1h-1.379a.358.358,0,0,1-.375-.376Z"
						transform="translate(-355.636 -656.963)" fill="#2dc84d" />
					<path id="Path_18037" data-name="Path 18037"
						d="M414.332,663.4a1.837,1.837,0,0,1-.816-1.6,1.8,1.8,0,0,1,.816-1.589,3.669,3.669,0,0,1,2.1-.555h2.039a1.343,1.343,0,0,0-.3-1,1.541,1.541,0,0,0-1.055-.283,1.3,1.3,0,0,0-1.06.372.933.933,0,0,1-.749.373h-.918a.368.368,0,0,1-.274-.108.363.363,0,0,1-.107-.268q0-1.768,3.356-1.767a3.861,3.861,0,0,1,2.352.656,2.355,2.355,0,0,1,.887,2.029v3.812a.36.36,0,0,1-.375.376h-1.189a.357.357,0,0,1-.271-.108.366.366,0,0,1-.105-.268v-.19a3.746,3.746,0,0,1-2.245.693A3.6,3.6,0,0,1,414.332,663.4Zm1.57-2.137a.674.674,0,0,0-.249.541.684.684,0,0,0,.259.549,1.113,1.113,0,0,0,.733.215,3.394,3.394,0,0,0,1.83-.554v-.961h-1.891A1.027,1.027,0,0,0,415.9,661.262Z"
						transform="translate(-355.243 -656.969)" fill="#2dc84d" />
					<path id="Path_18038" data-name="Path 18038"
						d="M421.7,663.466v-5.992a.376.376,0,0,1,.108-.274.364.364,0,0,1,.268-.107h1.379a.364.364,0,0,1,.268.107.372.372,0,0,1,.108.274v2.205h.905a2.819,2.819,0,0,1,1.1-2.017,4.1,4.1,0,0,1,2.5-.693,3.505,3.505,0,0,1,2.515.9,4.056,4.056,0,0,1,0,5.207,3.526,3.526,0,0,1-2.528.893,4.028,4.028,0,0,1-2.516-.718,2.9,2.9,0,0,1-1.087-2.078h-.892v2.3a.37.37,0,0,1-.376.376h-1.379a.36.36,0,0,1-.268-.108A.364.364,0,0,1,421.7,663.466Zm7.97-3q0-2.1-1.425-2.1t-1.426,2.1q0,2.1,1.426,2.1T429.671,660.467Z"
						transform="translate(-354.824 -656.969)" fill="#2dc84d" />
					<path id="Path_18039" data-name="Path 18039"
						d="M431.674,658.2v-.733a.369.369,0,0,1,.382-.382h6.067a.364.364,0,0,1,.271.107.38.38,0,0,1,.1.274v.733a.369.369,0,0,1-.1.268.361.361,0,0,1-.271.108h-1.965v4.884a.364.364,0,0,1-.108.268.368.368,0,0,1-.274.108H434.4a.37.37,0,0,1-.383-.376v-4.884h-1.965a.368.368,0,0,1-.273-.108A.36.36,0,0,1,431.674,658.2Z"
						transform="translate(-354.314 -656.963)" fill="#2dc84d" />
				</g>
				<g id="Group_16609" data-name="Group 16609" transform="translate(0.527)">
					<path id="Path_17339" data-name="Path 17339"
						d="M162.58,43.165l1.378-.121h.373a.615.615,0,0,1,.447.171.588.588,0,0,1,.176.442v1.077a.549.549,0,0,1-.176.4.772.772,0,0,1-.447.216,14.459,14.459,0,0,1-2.675.2q-4.324,0-4.324-4.525V31.549a.606.606,0,0,1,.176-.447.593.593,0,0,1,.437-.176H160.2a.592.592,0,0,1,.437.176.606.606,0,0,1,.176.447v3.36h2.806a.6.6,0,0,1,.437.17.59.59,0,0,1,.176.443v1.2a.587.587,0,0,1-.176.442.6.6,0,0,1-.437.171H160.81v3.691a2.352,2.352,0,0,0,.482,1.584A1.618,1.618,0,0,0,162.58,43.165Z"
						transform="translate(-157.331 -30.926)" fill="#0a5f87" />
					<path id="Path_17340" data-name="Path 17340"
						d="M168.851,45.237a3,3,0,0,1-1.332-2.615,2.947,2.947,0,0,1,1.332-2.594,5.992,5.992,0,0,1,3.434-.905h3.328a2.2,2.2,0,0,0-.493-1.639,2.512,2.512,0,0,0-1.725-.463,2.122,2.122,0,0,0-1.729.609,1.524,1.524,0,0,1-1.222.608h-1.5a.607.607,0,0,1-.448-.176.593.593,0,0,1-.175-.437q0-2.887,5.48-2.886a6.309,6.309,0,0,1,3.841,1.071,3.85,3.85,0,0,1,1.448,3.313v6.226a.587.587,0,0,1-.613.613h-1.941a.59.59,0,0,1-.443-.176.606.606,0,0,1-.17-.437v-.312a6.114,6.114,0,0,1-3.666,1.131A5.873,5.873,0,0,1,168.851,45.237Zm2.564-3.49a1.1,1.1,0,0,0-.407.884,1.116,1.116,0,0,0,.422.9,1.818,1.818,0,0,0,1.2.352,5.532,5.532,0,0,0,2.987-.905V41.405h-3.087A1.674,1.674,0,0,0,171.415,41.748Z"
						transform="translate(-158.971 -31.539)" fill="#0a5f87" />
					<path id="Path_17341" data-name="Path 17341"
						d="M184.263,45.347V35.562a.61.61,0,0,1,.175-.448.6.6,0,0,1,.438-.176h2.252a.59.59,0,0,1,.443.176.617.617,0,0,1,.171.448V36.2a6.5,6.5,0,0,1,1.423-1.082,3.506,3.506,0,0,1,1.684-.377,3.926,3.926,0,0,1,3.55,1.931,5.368,5.368,0,0,1,3.837-1.936,4.133,4.133,0,0,1,3.107,1.186,5.1,5.1,0,0,1,1.142,3.656v5.773a.587.587,0,0,1-.614.613h-2.242a.607.607,0,0,1-.448-.176.594.594,0,0,1-.176-.437V39.574q0-2.414-1.749-2.4-1.066,0-2.2,1.539a6.248,6.248,0,0,1,.06.865v5.773a.59.59,0,0,1-.176.442.6.6,0,0,1-.437.171h-2.243a.6.6,0,0,1-.447-.176.594.594,0,0,1-.176-.437V39.574q0-2.414-1.749-2.4a2.784,2.784,0,0,0-2.142,1.438v6.739a.59.59,0,0,1-.176.442.6.6,0,0,1-.438.171h-2.252a.585.585,0,0,1-.613-.613Z"
						transform="translate(-161.667 -31.539)" fill="#0a5f87" />
					<path id="Path_17342" data-name="Path 17342"
						d="M214.178,43.165l1.378-.121h.373a.614.614,0,0,1,.447.171.588.588,0,0,1,.176.442v1.077a.549.549,0,0,1-.176.4.772.772,0,0,1-.447.216,14.459,14.459,0,0,1-2.675.2q-4.324,0-4.324-4.525V31.549a.606.606,0,0,1,.176-.447.593.593,0,0,1,.437-.176H211.8a.593.593,0,0,1,.437.176.607.607,0,0,1,.176.447v3.36h2.806a.6.6,0,0,1,.437.17.59.59,0,0,1,.176.443v1.2a.587.587,0,0,1-.176.442.6.6,0,0,1-.437.171h-2.806v3.691a2.353,2.353,0,0,0,.482,1.584A1.618,1.618,0,0,0,214.178,43.165Z"
						transform="translate(-165.638 -30.926)" fill="#0a5f87" />
					<path id="Path_17343" data-name="Path 17343"
						d="M220.666,44.694a5.547,5.547,0,0,1-1.549-4.228,5.581,5.581,0,0,1,1.558-4.244A6.018,6.018,0,0,1,225,34.738a6.082,6.082,0,0,1,4.314,1.443,5.377,5.377,0,0,1,1.549,4.138v.573a.6.6,0,0,1-.623.623h-7.572a2.656,2.656,0,0,0,.709,1.8,2.8,2.8,0,0,0,1.946.564,2.267,2.267,0,0,0,1.83-.6,1.545,1.545,0,0,1,1.217-.613h1.5a.6.6,0,0,1,.623.623q0,2.887-5.5,2.876A6.031,6.031,0,0,1,220.666,44.694Zm1.981-5.3h4.676q-.1-2.374-2.328-2.374T222.647,39.394Z"
						transform="translate(-167.278 -31.539)" fill="#0a5f87" />
					<path id="Path_17344" data-name="Path 17344"
						d="M235.321,45.347V35.562a.607.607,0,0,1,.176-.448.594.594,0,0,1,.437-.176h2.253a.59.59,0,0,1,.443.176.619.619,0,0,1,.17.448V36.2a6.535,6.535,0,0,1,1.423-1.082,3.511,3.511,0,0,1,1.685-.377,3.926,3.926,0,0,1,3.55,1.931,5.367,5.367,0,0,1,3.836-1.936,4.135,4.135,0,0,1,3.108,1.186,5.094,5.094,0,0,1,1.141,3.656v5.773a.587.587,0,0,1-.613.613h-2.243a.606.606,0,0,1-.447-.176.594.594,0,0,1-.176-.437V39.574q0-2.414-1.749-2.4-1.066,0-2.2,1.539a6.253,6.253,0,0,1,.06.865v5.773a.59.59,0,0,1-.176.442.6.6,0,0,1-.437.171h-2.243a.607.607,0,0,1-.448-.176.6.6,0,0,1-.175-.437V39.574q0-2.414-1.75-2.4a2.784,2.784,0,0,0-2.142,1.438v6.739a.592.592,0,0,1-.175.442.6.6,0,0,1-.438.171h-2.253a.587.587,0,0,1-.613-.613Z"
						transform="translate(-169.887 -31.539)" fill="#0a5f87" />
				</g>
			</g>
		</g>
	</g>
</svg>