<svg id="Asset_20_Copy" data-name="Asset 20 Copy" xmlns="http://www.w3.org/2000/svg" width="22.037" height="18.12" viewBox="0 0 22.037 18.12"><path id="Shape-56" d="M606.9 139.634l-.006-1.848h-20.955v1.848z" transform="translate(-585.398 -121.514)" fill="#082caf"/><g id="Group_595" data-name="Group 595" transform="translate(7.773)"><path id="Shape-57" d="M598.493 122.435l.645.614-1.3 1.339-.657-.657a1.265 1.265 0 00-1.789-.005v.005a1.263 1.263 0 000 1.786l11.507 11.507a1.843 1.843 0 01.005 2.606h-.005l-12.809-12.809a3.112 3.112 0 010-4.4 3.113 3.113 0 014.4.006z" transform="translate(-593.172 -121.514)" fill="#082caf"/></g><g id="Group_596" data-name="Group 596" transform="translate(0 7.368)"><path id="Shape-58" d="M585.937 137.031l8.124-8.149 1.271 1.271-9.395 9.481a1.842 1.842 0 010-2.603z" transform="translate(-585.398 -128.882)" fill="#082caf"/></g></svg>