<svg id="Asset_45_Copy" data-name="Asset 45 Copy" xmlns="http://www.w3.org/2000/svg" width="21.513" height="22.065" viewBox="0 0 21.513 22.065"><path id="Rectangle-path-15" transform="translate(9.576 18.375)" fill="#082caf" d="M0 0h1.655v2.394H0z"/><g id="Group_628" data-name="Group 628" transform="translate(6.068 20.41)"><path id="Shape-95" d="M945.816 47.115a1.655 1.655 0 011.655-1.655h5.373a1.654 1.654 0 011.655 1.655h-8.682z" transform="translate(-945.816 -45.46)" fill="#082caf"/></g><g id="Group_629" data-name="Group 629" transform="translate(0 8.027)"><path id="Shape-96" d="M949.8 42.4a10.752 10.752 0 01-10.741-10.729h1.656a9.1 9.1 0 0018.2 0h1.655A10.757 10.757 0 01949.8 42.4z" transform="translate(-939.061 -31.675)" fill="#082caf"/></g><g id="Group_630" data-name="Group 630" transform="translate(2.759)"><path id="Shape-97" d="M950.119 38.737h-.005a8 8 0 01.016-16h.005a8 8 0 01-.016 16zm.005-14.342h-.011a6.344 6.344 0 00.016 12.687h.005a6.344 6.344 0 00-.01-12.687z" transform="translate(-942.132 -22.74)" fill="#082caf"/></g></svg>