<svg xmlns="http://www.w3.org/2000/svg" width="21.29" height="17.51" viewBox="0 0 21.29 17.51"><g id="Group_11194" data-name="Group 11194" transform="translate(-28.75 -32.523)" fill="#082caf"><g id="Group_9297" data-name="Group 9297" transform="translate(28.75 39.92)"><path id="Path_9408" data-name="Path 9408" d="M33.931 47.539a4.931 4.931 0 104.931 4.931 4.937 4.937 0 00-4.931-4.931zm0 8.63a3.7 3.7 0 113.7-3.7 3.7 3.7 0 01-3.7 3.7zm0 0" transform="translate(-28.875 -47.414)"/><path id="Path_9409" data-name="Path 9409" d="M33.807 57.4a5.057 5.057 0 115.057-5.057 5.062 5.062 0 01-5.057 5.057zm0-9.863a4.806 4.806 0 104.806 4.806 4.812 4.812 0 00-4.806-4.804zm0 8.63a3.824 3.824 0 113.824-3.824 3.828 3.828 0 01-3.824 3.826zm0-7.4a3.573 3.573 0 103.573 3.573 3.577 3.577 0 00-3.573-3.568z" transform="translate(-28.75 -47.289)"/></g><g id="Group_9298" data-name="Group 9298" transform="translate(31.832 43.002)"><path id="Path_9410" data-name="Path 9410" d="M37 53.691a1.849 1.849 0 101.85 1.849A1.851 1.851 0 0037 53.691zm0 2.466a.616.616 0 11.616-.616.617.617 0 01-.616.616zm0 0" transform="translate(-35.027 -53.566)"/><path id="Path_9411" data-name="Path 9411" d="M36.877 57.39a1.974 1.974 0 111.974-1.974 1.977 1.977 0 01-1.974 1.974zm0-3.7a1.724 1.724 0 101.723 1.726 1.726 1.726 0 00-1.723-1.725zm0 2.466a.742.742 0 11.741-.741.742.742 0 01-.741.742zm0-1.233a.491.491 0 10.491.491.492.492 0 00-.491-.49z" transform="translate(-34.902 -53.441)"/></g><g id="Group_9299" data-name="Group 9299" transform="translate(28.923 32.523)"><path id="Path_9412" data-name="Path 9412" d="M49.03 43.58V41.4a2.468 2.468 0 00-2.466-2.466h-1.233v-3.079a.617.617 0 01.617-.617v-1.232a1.851 1.851 0 00-1.848 1.849v3.082h-2.707l-1.479-4.931h1.021v-1.233h-9.863v1.233H32.3v3.934a7.4 7.4 0 00-2.853 1.46l.785.95a6.164 6.164 0 0110.086 4.75v1.85h2.6a3.7 3.7 0 106.112-3.37zm-15.492-5.85v-3.724h5.089l1.479 4.931h-1.868a7.354 7.354 0 00-4.084-1.237q-.31 0-.617.026zm6.125 2.44h6.9A1.234 1.234 0 0147.8 41.4v1.444a3.682 3.682 0 00-1.233-.211h-5.439a7.4 7.4 0 00-1.466-2.466zm1.785 3.7h2.362a3.686 3.686 0 00-.892 1.849h-1.367V45.1a7.413 7.413 0 00-.1-1.233zm5.116 4.93a2.466 2.466 0 112.466-2.466 2.468 2.468 0 01-2.466 2.466zm0 0" transform="translate(-29.271 -32.648)"/><path id="Path_9413" data-name="Path 9413" d="M46.389 50.033a3.811 3.811 0 01-3.751-3.082h-2.62v-1.975a6.039 6.039 0 00-9.881-4.659l-.1.08-.944-1.144.1-.08A7.573 7.573 0 0132 37.719v-3.713h-1.229v-1.483h10.113v1.483h-.978l1.4 4.681H43.8v-2.956a1.977 1.977 0 011.975-1.975h.125v1.483h-.125a.492.492 0 00-.491.491v2.957h1.108a2.594 2.594 0 012.591 2.591V43.4a3.822 3.822 0 01-2.591 6.633zM40.268 46.7h2.581l.017.1a3.573 3.573 0 105.905-3.257l-.042-.038v-2.227a2.343 2.343 0 00-2.34-2.34h-1.358v-3.207a.743.743 0 01.616-.731v-.988a1.727 1.727 0 00-1.6 1.72v3.207h-2.923l-1.554-5.183h1.064v-.982h-9.612v.982h1.233v4.156l-.094.025a7.326 7.326 0 00-2.713 1.352l.626.757a6.289 6.289 0 0110.194 4.931zm6.121 2.1a2.591 2.591 0 112.591-2.591 2.594 2.594 0 01-2.591 2.591zm0-4.931a2.34 2.34 0 102.34 2.34 2.343 2.343 0 00-2.34-2.34zm-3.54 1.849h-1.6v-.741a7.35 7.35 0 00-.1-1.212l-.025-.146h2.791l-.187.209a3.557 3.557 0 00-.863 1.786zm-1.348-.25h1.138a3.788 3.788 0 01.729-1.6h-1.949a7.534 7.534 0 01.082 1.108zm6.246-2.568l-.167-.059a3.572 3.572 0 00-1.191-.2h-5.525l-.03-.083a7.232 7.232 0 00-1.441-2.424l-.187-.209h7.182a1.36 1.36 0 011.358 1.358zm-6.707-.513h5.349a3.8 3.8 0 011.108.164v-1.273a1.109 1.109 0 00-1.108-1.108h-6.628a7.488 7.488 0 011.279 2.216zm-.94-3.449h-2.076l-.031-.021a7.232 7.232 0 00-4.014-1.217c-.2 0-.4.009-.606.026l-.136.012v-3.982h5.307zm-2-.25h1.663l-1.4-4.681h-4.876v3.465c.165-.011.33-.017.491-.017a7.478 7.478 0 014.122 1.232z" transform="translate(-29.095 -32.523)"/></g><g id="Group_9300" data-name="Group 9300" transform="translate(45.475 45.467)"><path id="Path_9414" data-name="Path 9414" d="M63.62 59.23a.616.616 0 11-.62-.617.616.616 0 01.617.617zm0 0" transform="translate(-62.262 -58.488)"/><path id="Path_9415" data-name="Path 9415" d="M62.878 59.846a.742.742 0 11.742-.741.742.742 0 01-.742.741zm0-1.233a.491.491 0 10.491.491.492.492 0 00-.491-.491z" transform="translate(-62.137 -58.363)"/></g></g></svg>