<svg id="Asset_57" data-name="Asset 57" xmlns="http://www.w3.org/2000/svg" width="15.791" height="23.553" viewBox="0 0 15.791 23.553"><path id="Shape-105" d="M589.562 187.9a2.662 2.662 0 01-2.662-2.662 2.6 2.6 0 01.756-1.863l3.12-3.008 1.108 1.144-1.3 1.267a2.606 2.606 0 01.868.576 2.662 2.662 0 01-1.885 4.546zm0-3.726a1.065 1.065 0 101.047 1.039 1.063 1.063 0 00-1.047-1.039z" transform="translate(-586.899 -170.463)" fill="#082caf"/><path id="Shape-106" d="M589.562 195.293a2.663 2.663 0 112.458-1.641 2.662 2.662 0 01-2.458 1.641zm.006-3.726h-.006a1.065 1.065 0 10.006 0z" transform="translate(-586.899 -171.74)" fill="#082caf"/><path id="Shape-107" d="M599.932 195.292a2.661 2.661 0 112.459-1.642 2.662 2.662 0 01-2.459 1.642zm0-3.727a1.07 1.07 0 10.751.315 1.07 1.07 0 00-.751-.315z" transform="translate(-586.804 -171.74)" fill="#082caf"/><g id="Group_644" data-name="Group 644" transform="translate(4.383 19.98)"><path id="Shape-108" d="M596.622 191.994a2.13 2.13 0 01-3.77.473 2.018 2.018 0 01-.239-.479l-1.507.532a3.7 3.7 0 00.42.831 3.728 3.728 0 006.581-.825z" transform="translate(-591.106 -191.988)" fill="#082caf"/></g><path id="Shape-109" d="M590.96 192.259h1.634a2.63 2.63 0 00-2.625-2.285v1.6a1.042 1.042 0 01.99.687z" transform="translate(-586.972 -171.74)" fill="#082caf"/><path id="Shape-110" d="M598.936 192.259h-1.6a2.63 2.63 0 012.625-2.285v1.6a1.062 1.062 0 00-.751.314.99.99 0 00-.274.371z" transform="translate(-587.146 -171.74)" fill="#082caf"/><g id="Group_645" data-name="Group 645" transform="translate(.779 9.902)"><path id="Shape-111" d="M590.7 182.776l-1.517 1.512-1.384-.942 3.1-2.981 1.101 1.144z" transform="translate(-587.797 -180.365)" fill="#082caf"/></g><path id="Shape-112" d="M589.86 186.71a1.065 1.065 0 01-1.054-1.768 1.059 1.059 0 01.261-.175v-.927h-1.389a2.587 2.587 0 00-.778 1.858 2.662 2.662 0 002.662 2.662 2.745 2.745 0 00.692-.1c-.085-.379-.234-.943-.394-1.55z" transform="translate(-586.899 -170.925)" fill="#082caf"/><path id="Shape-113" d="M599.934 187.9a2.658 2.658 0 01-1.875-4.546 2.609 2.609 0 01.865-.576l-1.313-1.267 1.107-1.144 3.12 3.008a2.6 2.6 0 01.756 1.863 2.662 2.662 0 01-2.662 2.662zm-.008-3.753a1.081 1.081 0 10.01 0z" transform="translate(-586.804 -170.463)" fill="#082caf"/><g id="Group_646" data-name="Group 646" transform="translate(10.808 9.902)"><path id="Shape-114" d="M598.968 182.776l1.517 1.512 1.385-.942-3.1-2.981-1.107 1.144z" transform="translate(-597.664 -180.365)" fill="#082caf"/></g><path id="Shape-115" d="M599.93 186.709a1.065 1.065 0 001.065-1.768 1.08 1.08 0 00-.255-.181v-.926h1.394a2.587 2.587 0 01.756 1.863 2.661 2.661 0 01-2.662 2.662 2.826 2.826 0 01-.7-.1c.098-.379.232-.943.402-1.55z" transform="translate(-587.104 -170.924)" fill="#082caf"/><g id="Group_647" data-name="Group 647" transform="translate(.858 .558)"><path id="Shape-116" d="M594.922 180.59c-3.494 0-6.326-2.536-6.332-5.664v-.532a2.772 2.772 0 01.581-4.176 3.62 3.62 0 014.378.231l-1.267 1.139a1.668 1.668 0 00-2.173.13 1.273 1.273 0 000 1.819l.262.234v1.155a4.594 4.594 0 009.091.042v-1.2l.256-.229a1.284 1.284 0 00.224-1.94 1.666 1.666 0 00-2.166-.2 1.486 1.486 0 00-.216.191l-1.26-1.129a3.605 3.605 0 014.7 0 2.752 2.752 0 01.258 3.95v.575c-.042 3.104-2.866 5.601-6.336 5.604z" transform="translate(-587.889 -169.587)" fill="#082caf"/></g><path id="Shape-117" d="M592.253 171.542l-1.128-1.112a4.786 4.786 0 013.476-1.485 4.788 4.788 0 013.477 1.485l-1.15 1.112a3.194 3.194 0 00-2.327-1 3.2 3.2 0 00-2.348 1z" transform="translate(-586.727 -168.944)" fill="#082caf"/><path id="Shape-118" d="M594.921 179.794a2.662 2.662 0 112.461-1.645 2.662 2.662 0 01-2.461 1.645zm0-3.726a1.072 1.072 0 10.751.314 1.073 1.073 0 00-.751-.315z" transform="translate(-586.85 -169.679)" fill="#082caf"/><g id="Group_648" data-name="Group 648" transform="translate(4.912 3.686)"><path id="Shape-119" d="M592.9 173.348a.531.531 0 10.16.378.532.532 0 00-.16-.378z" transform="translate(-591.997 -173.195)" fill="#082caf"/></g><g id="Group_649" data-name="Group 649" transform="translate(9.834 3.686)"><path id="Shape-120" d="M598.01 173.348a.533.533 0 10.16.378.532.532 0 00-.16-.378z" transform="translate(-597.105 -173.195)" fill="#082caf"/></g></svg>