<svg id="Asset_60" data-name="Asset 60" xmlns="http://www.w3.org/2000/svg" width="25.379" height="21.276" viewBox="0 0 25.379 21.276"><path id="Shape-129" d="M956.408 303.5a2.774 2.774 0 01-1.965-.817l-6.558-6.551.614-.651a14.074 14.074 0 002.309-3.795c1.056-2.7.688-4.974-1.1-6.754l1.308-1.3c4.095 4.1 1.658 9.56-.584 12.416l5.336 5.336a.94.94 0 001.329 0 .952.952 0 000-1.333l-4.053-4.046 1.3-1.3 4.053 4.046a2.788 2.788 0 01-1.971 4.753z" transform="translate(-939.043 -282.725)" fill="#082caf"/><path id="Shape-130" d="M946.639 304a2.783 2.783 0 01-1.965-4.752l2.3-2.3 1.284 1.3-2.278 2.278a.94.94 0 001.326 1.333l2.3-2.3 1.308 1.3-2.3 2.3a2.777 2.777 0 01-1.975.841z" transform="translate(-939.043 -282.725)" fill="#082caf"/><path id="Rectangle-path-17" transform="rotate(-45 16.452 -13.91)" fill="#082caf" d="M0 0h4.918v1.842H0z"/><g id="Group_665" data-name="Group 665" transform="translate(14.172 .639)"><path id="Shape-131" d="M963.69 288.165l-3.487-3.487a4.477 4.477 0 00-6.331-.007l-.006.007-.651.651 4.022 4.015 1.3-1.3-2.6-2.6a2.641 2.641 0 012.966.534l3.475 3.5a.868.868 0 01-1.228 1.228l-1.4-1.4-1.3 1.3 1.4 1.4a2.694 2.694 0 003.813-3.807z" transform="translate(-953.215 -283.363)" fill="#082caf"/></g><g id="Group_666" data-name="Group 666"><path id="Shape-132" d="M942.3 295.792a3.283 3.283 0 01-2.3-5.606l6.417-6.4a3.279 3.279 0 014.834 4.431 2.903 2.903 0 01-.2.2l-6.4 6.4a3.271 3.271 0 01-2.321.97zm6.488-11.175a1.44 1.44 0 00-1.068.475l-6.4 6.4a1.44 1.44 0 001 2.462h.005a1.45 1.45 0 001.02-.43l6.4-6.4a1.437 1.437 0 00-.965-2.5z" transform="translate(-939.043 -282.725)" fill="#082caf"/></g><g id="Group_667" data-name="Group 667" transform="translate(13.973 6.675)"><path id="Rectangle-path-18" transform="rotate(-45 7.992 3.31)" fill="#082caf" d="M0 0h9.364v1.842H0z"/></g></svg>