<svg id="Asset_56" data-name="Asset 56" xmlns="http://www.w3.org/2000/svg" width="15.773" height="24.535" viewBox="0 0 15.773 24.535"><path id="Shape-124" d="M951.423 247.972a3.043 3.043 0 01-3.108-2.972v-4.09h1.752V245a1.3 1.3 0 001.356 1.221z" transform="translate(-941.183 -223.437)" fill="#082caf"/><path id="Shape-125" d="M945.634 222.544v5.256h-1.752v-3.5a1.752 1.752 0 011.752-1.756z" transform="translate(-940.967 -222.544)" fill="#082caf"/><path id="Shape-126" d="M954.243 224.314v3.5h-1.753v-5.257a1.753 1.753 0 011.753 1.757z" transform="translate(-941.386 -222.545)" fill="#082caf"/><g id="Group_661" data-name="Group 661" transform="translate(0 8.178)"><path id="Shape-127" d="M948.71 241.615a7.891 7.891 0 01-7.892-7.887v-2.588h1.752v2.56a6.133 6.133 0 1012.267 0v-1.4h1.753v1.4a7.9 7.9 0 01-7.88 7.915z" transform="translate(-940.818 -231.14)" fill="#082caf"/></g><g id="Group_662" data-name="Group 662" transform="translate(0 6.426)"><path id="Shape-128" d="M942.57 229.3h12.267a1.753 1.753 0 011.753 1.752h-15.772a1.752 1.752 0 011.752-1.752z" transform="translate(-940.818 -229.298)" fill="#082caf"/></g></svg>