<svg id="Asset_36_Copy" data-name="Asset 36 Copy" xmlns="http://www.w3.org/2000/svg" width="25.23" height="13.447" viewBox="0 0 25.23 13.447"><path id="Shape-69" d="M767.489 73.814h-5.87a6.024 6.024 0 00-5.6 4.476l-1.314 4.39h1.941l1.314-4.39a4.186 4.186 0 013.88-2.634h5.428a4.184 4.184 0 013.906 2.634h1.94a6.022 6.022 0 00-5.625-4.476z" transform="translate(-754.595 -73.814)" fill="#082caf"/><path id="Rectangle-path-11" transform="translate(6.791 9.671)" fill="#082caf" d="M0 0h11.624v1.842H0z"/><path id="Shape-70" d="M776.878 83.485h2.947a1.842 1.842 0 01-1.842 1.842h-1.1z" transform="translate(-754.595 -73.814)" fill="#082caf"/><path id="Shape-71" d="M757.542 85.321h-1.1a1.842 1.842 0 01-1.842-1.842h2.947z" transform="translate(-754.595 -73.814)" fill="#082caf"/><g id="Group_605" data-name="Group 605" transform="translate(2.226 7.724)"><path id="Shape-72" d="M759.68 87.261a2.862 2.862 0 11.005 0zm0-3.874a1.019 1.019 0 10.006 0z" transform="translate(-756.821 -81.538)" fill="#082caf"/></g><g id="Group_606" data-name="Group 606" transform="translate(17.485 7.724)"><path id="Shape-73" d="M774.938 87.261a2.862 2.862 0 11.006 0zm0-3.874a1.02 1.02 0 10.007 0z" transform="translate(-772.08 -81.538)" fill="#082caf"/></g><g id="Group_607" data-name="Group 607" transform="translate(13.76 4.39)"><path id="Shape-74" d="M770.2 80.046h3.8a4.194 4.194 0 013.887 2.634h1.934A6.036 6.036 0 00774 78.2h-5.649a1.842 1.842 0 001.849 1.846z" transform="translate(-768.355 -78.204)" fill="#082caf"/></g></svg>