<svg id="Векторный_смарт-объект" data-name="Векторный смарт-объект" xmlns="http://www.w3.org/2000/svg" width="22.758" height="22.758" viewBox="0 0 22.758 22.758"><path id="Path_9" data-name="Path 9" d="M198.727 197.774a1.387 1.387 0 101.387 1.387 1.389 1.389 0 00-1.387-1.387z" transform="translate(-181.298 -193.818)" fill="#fff"/><path id="Path_10" data-name="Path 10" d="M199.555 194.124h-11.277a5.749 5.749 0 00-5.741 5.742v11.274a5.747 5.747 0 005.741 5.742h11.277a5.746 5.746 0 005.74-5.742v-11.275a5.748 5.748 0 00-5.74-5.741zm3.264 17.016a3.269 3.269 0 01-3.264 3.266h-11.277a3.268 3.268 0 01-3.264-3.266v-11.275a3.267 3.267 0 013.264-3.264h11.277a3.268 3.268 0 013.264 3.264z" transform="translate(-182.537 -194.124)" fill="#fff"/><path id="Path_11" data-name="Path 11" d="M193.489 199.215a5.861 5.861 0 105.862 5.861 5.87 5.87 0 00-5.862-5.861zm0 9.246a3.384 3.384 0 113.386-3.385 3.389 3.389 0 01-3.386 3.386z" transform="translate(-182.111 -193.697)" fill="#fff"/></svg>