<svg xmlns="http://www.w3.org/2000/svg" width="186" height="32.51" viewBox="0 0 186 32.51"><g id="Group_9463" data-name="Group 9463" transform="translate(-226.373 -336.985)"><path id="Path_8894" data-name="Path 8894" d="M238.045 364.2l3.062-.268h.826a1.361 1.361 0 011 .38 1.3 1.3 0 01.393.983v2.392a1.219 1.219 0 01-.393.884 1.706 1.706 0 01-1 .48 31.99 31.99 0 01-5.947.448q-9.613 0-9.613-10.062v-21.065a1.346 1.346 0 01.393-1 1.32 1.32 0 01.972-.391h5.008a1.325 1.325 0 01.972.391 1.346 1.346 0 01.393 1v7.467h6.238a1.345 1.345 0 01.972.38 1.31 1.31 0 01.391.984v2.66a1.309 1.309 0 01-.391.984 1.34 1.34 0 01-.972.38h-6.239v8.205a5.218 5.218 0 001.073 3.521 3.591 3.591 0 002.862 1.247z" fill="#0a1e97"/><path id="Path_8895" data-name="Path 8895" d="M262.977 365.757V344a1.346 1.346 0 01.391-1 1.316 1.316 0 01.972-.39h5.01a1.311 1.311 0 01.983.39 1.37 1.37 0 01.38 1v1.41a14.5 14.5 0 013.164-2.4 7.786 7.786 0 013.744-.837 8.727 8.727 0 017.892 4.292q4.161-4.315 8.53-4.3a9.189 9.189 0 016.908 2.639q2.538 2.627 2.539 8.127v12.833a1.3 1.3 0 01-1.366 1.364h-4.984a1.351 1.351 0 01-1-.391 1.325 1.325 0 01-.39-.973v-12.841q0-5.367-3.891-5.343-2.37 0-4.9 3.42a13.711 13.711 0 01.135 1.923v12.833a1.317 1.317 0 01-.39.984 1.343 1.343 0 01-.973.38h-4.987a1.349 1.349 0 01-1-.391 1.315 1.315 0 01-.391-.973v-12.833q0-5.367-3.891-5.343-2.479 0-4.761 3.2v14.98a1.309 1.309 0 01-.392.984 1.334 1.334 0 01-.97.38h-5.01a1.3 1.3 0 01-1.363-1.364z" transform="translate(13.637 1.927)" fill="#0a1e97"/><path id="Path_8896" data-name="Path 8896" d="M308.172 364.2l3.061-.268h.828a1.366 1.366 0 011 .38 1.3 1.3 0 01.391.983v2.392a1.218 1.218 0 01-.391.884 1.714 1.714 0 01-1 .48 32.011 32.011 0 01-5.947.448q-9.613 0-9.613-10.062v-21.065a1.35 1.35 0 01.391-1 1.323 1.323 0 01.972-.391h5.01a1.321 1.321 0 01.97.391 1.345 1.345 0 01.393 1v7.467h6.24a1.34 1.34 0 01.97.38 1.306 1.306 0 01.393.984v2.66a1.305 1.305 0 01-.393.984 1.335 1.335 0 01-.97.38h-6.24v8.205a5.219 5.219 0 001.073 3.521 3.594 3.594 0 002.862 1.247z" transform="translate(26.126)" fill="#fff"/><path id="Path_8897" data-name="Path 8897" d="M313.79 364.3q-3.442-3.263-3.444-9.4t3.467-9.436q3.463-3.3 9.613-3.3t9.591 3.208q3.442 3.21 3.444 9.2v1.275a1.341 1.341 0 01-1.386 1.386H318.24a5.9 5.9 0 001.576 4 6.233 6.233 0 004.326 1.253q2.973 0 4.07-1.342a3.428 3.428 0 012.705-1.363h3.331a1.338 1.338 0 011.386 1.386q0 6.415-12.229 6.395-6.173.003-9.615-3.262zm4.4-11.783h10.4q-.224-5.275-5.177-5.276t-5.219 5.275z" transform="translate(31.284 1.93)" fill="#fff"/><path id="Path_8898" data-name="Path 8898" d="M332.37 365.757V344a1.346 1.346 0 01.391-1 1.316 1.316 0 01.972-.39h5.01a1.309 1.309 0 01.983.39 1.37 1.37 0 01.38 1v1.41a14.5 14.5 0 013.164-2.4 7.787 7.787 0 013.744-.837 8.727 8.727 0 017.892 4.292q4.161-4.315 8.53-4.3a9.188 9.188 0 016.908 2.639q2.538 2.627 2.539 8.127v12.833a1.3 1.3 0 01-1.364 1.364h-4.987a1.351 1.351 0 01-1-.391 1.325 1.325 0 01-.39-.973v-12.841q0-5.367-3.891-5.343-2.37 0-4.9 3.42a13.724 13.724 0 01.135 1.923v12.833a1.317 1.317 0 01-.39.984 1.343 1.343 0 01-.973.38h-4.987a1.349 1.349 0 01-1-.391 1.315 1.315 0 01-.391-.973v-12.833q0-5.367-3.891-5.343-2.479 0-4.761 3.2v14.98a1.309 1.309 0 01-.393.984 1.334 1.334 0 01-.97.38h-5.01a1.3 1.3 0 01-1.363-1.364z" transform="translate(39.49 1.927)" fill="#fff"/><path id="Path_8899" data-name="Path 8899" d="M252.357 341.87v2.53c0 .854-.007 1.706 0 2.559 0 .246-.055.364-.327.406a6.769 6.769 0 00-5.584 6.021 7.483 7.483 0 001.754 6.149 6.475 6.475 0 005.776 2.2.644.644 0 01.487.163c1.138 1.412 2.255 2.841 3.378 4.266a2.311 2.311 0 01.13.221 13.54 13.54 0 01-7.594.627 16.466 16.466 0 01-6.369-3.308 11.847 11.847 0 01-3.891-8.287c-.007-.1-.015-.992.005-1.345a12.511 12.511 0 016.362-10.584 12.358 12.358 0 015.481-1.651 1.743 1.743 0 01.206 0c.046-.001.084.013.186.033z" transform="translate(5.119 1.806)" fill="#fff"/><path id="Path_8900" data-name="Path 8900" d="M251.224 341.928a12.532 12.532 0 018.743 5.229c2.963 4.343 3.111 8.916.736 13.586a3.362 3.362 0 01-.427.7c-.28.32-.192.546.052.844 1.091 1.327 2.16 2.674 3.236 4.013.084.1.162.214.224.3a6.266 6.266 0 01-.414.482.5.5 0 01-.3.139q-2.747.016-5.49.007a.565.565 0 01-.388-.165c-1.6-1.955-3.2-3.919-4.827-5.928a7.405 7.405 0 002.523-2.351 7.769 7.769 0 00-1.937-10.475 5.773 5.773 0 00-2.51-.983c-.246-.032-.357-.122-.357-.39 0-1.583-.011-3.164-.015-4.746a.494.494 0 01.129-.342" transform="translate(8.83 1.813)" fill="#fff"/></g></svg>