<svg id="Векторный_смарт-объект" data-name="Векторный смарт-объект" xmlns="http://www.w3.org/2000/svg" width="15.172" height="26.009" viewBox="0 0 15.172 26.009"><path id="Path_12" data-name="Path 12" d="M127.807 173.67a6.585 6.585 0 106.355 6.667 6.5 6.5 0 00-6.355-6.667zm-.009 9.805a3.223 3.223 0 113.108-3.228 3.161 3.161 0 01-3.106 3.228z" transform="translate(-120.195 -173.67)" fill="#fff" fill-rule="evenodd"/><path id="Path_13" data-name="Path 13" d="M135.062 188.409a7.668 7.668 0 01-2.77 1.842 12.7 12.7 0 01-3.141.725c.161.181.237.271.339.375 1.455 1.5 2.916 3 4.365 4.512a1.519 1.519 0 01.325 1.75 1.719 1.719 0 01-1.616 1.038 1.559 1.559 0 01-1.023-.538c-1.1-1.137-2.216-2.255-3.292-3.413-.314-.338-.464-.272-.74.019-1.1 1.17-2.227 2.324-3.355 3.469a1.378 1.378 0 01-1.7.314 1.774 1.774 0 01-.992-1.628 1.655 1.655 0 01.533-1.094q2.16-2.218 4.311-4.445c.1-.1.185-.2.323-.357a9.638 9.638 0 01-5.238-1.923c-.187-.151-.381-.3-.552-.466a1.561 1.561 0 01-.2-2.177 1.468 1.468 0 011.98-.457 3.159 3.159 0 01.436.263 8.379 8.379 0 009.516.089 2.566 2.566 0 01.927-.493 1.435 1.435 0 011.667.685 1.481 1.481 0 01-.1 1.91z" transform="translate(-120.288 -172.659)" fill="#fff" fill-rule="evenodd"/></svg>