<svg id="Векторный_смарт-объект" data-name="Векторный смарт-объект" xmlns="http://www.w3.org/2000/svg" width="27.093" height="15.172" viewBox="0 0 27.093 15.172"><path id="Path_14" data-name="Path 14" d="M126.256 184.594h1.62a1.38 1.38 0 00.738-.318 1.149 1.149 0 00.223-.7s-.032-2.134.977-2.447 2.27 2.061 3.624 2.973a2.6 2.6 0 001.8.539l3.617-.049s1.893-.115.995-1.576a11.9 11.9 0 00-2.691-3.055c-2.268-2.066-1.965-1.733.769-5.308 1.665-2.177 2.33-3.506 2.123-4.076-.2-.543-1.422-.4-1.422-.4l-4.075.025a.944.944 0 00-.526.09 1.113 1.113 0 00-.359.43 22.862 22.862 0 01-1.505 3.117c-1.814 3.026-2.539 3.184-2.836 3-.69-.439-.517-1.759-.517-2.7 0-2.93.453-4.152-.882-4.467a7.02 7.02 0 00-1.9-.185 8.926 8.926 0 00-3.382.338c-.463.222-.821.719-.6.747a1.846 1.846 0 011.2.594 3.8 3.8 0 01.4 1.808s.24 3.45-.56 3.879c-.549.295-1.3-.307-2.92-3.05a25.341 25.341 0 01-1.453-2.958 1.187 1.187 0 00-.336-.445 1.709 1.709 0 00-.627-.248l-3.87.024s-.582.016-.8.264c-.189.22-.014.677-.014.677s3.03 6.96 6.461 10.467a9.392 9.392 0 006.721 3.006z" transform="translate(-113 -169.485)" fill="#fff" fill-rule="evenodd"/></svg>