<svg width="17" height="13" viewBox="0 0 17 13" fill="none" xmlns="http://www.w3.org/2000/svg">
<path d="M8.5 2.42878C9.92084 2.42406 11.3142 2.81977 12.5198 3.57041C13.7255 4.32105 14.6945 5.39615 15.3155 6.67212C14.0405 9.27213 11.4364 10.9155 8.5 10.9155C5.56364 10.9155 2.95955 9.27213 1.68455 6.67212C2.30552 5.39615 3.27453 4.32105 4.48018 3.57041C5.68582 2.81977 7.07916 2.42406 8.5 2.42878ZM8.5 0.885742C4.63636 0.885742 1.33682 3.28516 0 6.67212C1.33682 10.0591 4.63636 12.4585 8.5 12.4585C12.3636 12.4585 15.6632 10.0591 17 6.67212C15.6632 3.28516 12.3636 0.885742 8.5 0.885742ZM8.5 4.74333C9.01235 4.74333 9.50372 4.94654 9.866 5.30826C10.2283 5.66998 10.4318 6.16057 10.4318 6.67212C10.4318 7.18367 10.2283 7.67426 9.866 8.03598C9.50372 8.3977 9.01235 8.60091 8.5 8.60091C7.98765 8.60091 7.49628 8.3977 7.134 8.03598C6.77171 7.67426 6.56818 7.18367 6.56818 6.67212C6.56818 6.16057 6.77171 5.66998 7.134 5.30826C7.49628 4.94654 7.98765 4.74333 8.5 4.74333ZM8.5 3.20029C6.58364 3.20029 5.02273 4.75876 5.02273 6.67212C5.02273 8.58548 6.58364 10.1439 8.5 10.1439C10.4164 10.1439 11.9773 8.58548 11.9773 6.67212C11.9773 4.75876 10.4164 3.20029 8.5 3.20029Z" fill="#888888"/>
</svg>
