<svg width="10" height="15" viewBox="0 0 10 15" fill="none" xmlns="http://www.w3.org/2000/svg">
<path fill-rule="evenodd" clip-rule="evenodd" d="M5 11.8705L10 14.8658V2.88457C10 2.35497 9.78929 1.84705 9.41421 1.47257C9.03914 1.09808 8.53043 0.887695 8 0.887695H2C1.46957 0.887695 0.960859 1.09808 0.585786 1.47257C0.210714 1.84705 0 2.35497 0 2.88457V14.8658L5 11.8705ZM1 13.1026L5 10.7063L9 13.1026V2.88457C9 2.61977 8.89464 2.36581 8.70711 2.17857C8.51957 1.99133 8.26522 1.88613 8 1.88613H2C1.73478 1.88613 1.48043 1.99133 1.29289 2.17857C1.10536 2.36581 1 2.61977 1 2.88457V13.1026Z" fill="#888888"/>
</svg>
