<svg width="4" height="7" viewBox="0 0 4 7" fill="none" xmlns="http://www.w3.org/2000/svg">
<path d="M3.49882 3.50549C3.49905 3.62211 3.45838 3.73513 3.38388 3.82493L0.885169 6.81969C0.800343 6.92162 0.67845 6.98572 0.546306 6.99789C0.414161 7.01006 0.282588 6.9693 0.180533 6.88458C0.078477 6.79985 0.0142982 6.67811 0.00211467 6.54613C-0.0100689 6.41415 0.0307407 6.28274 0.115566 6.18081L2.35441 3.50549L0.195525 0.830172C0.154014 0.779118 0.123014 0.720372 0.104308 0.657313C0.0856015 0.594254 0.0795577 0.528124 0.0865237 0.462724C0.0934897 0.397325 0.113328 0.333944 0.144898 0.276227C0.176469 0.21851 0.219149 0.167593 0.270486 0.126404C0.32187 0.0806937 0.382152 0.0460749 0.447555 0.0247159C0.512958 0.00335693 0.582073 -0.00428104 0.650569 0.00227928C0.719066 0.00883913 0.785467 0.0294561 0.845615 0.062839C0.905762 0.0962224 0.958358 0.141653 1.00011 0.196282L3.41386 3.19104C3.47659 3.28342 3.5065 3.39413 3.49882 3.50549Z" fill="#0079B2"/>
</svg>
