<svg width="11" height="15" viewBox="0 0 11 15" fill="none" xmlns="http://www.w3.org/2000/svg">
<path d="M5.49838 2.07227C4.96948 2.07227 4.45246 2.21981 4.0127 2.49625C3.57293 2.77269 3.23018 3.1656 3.02778 3.6253C2.82538 4.085 2.77242 4.59084 2.8756 5.07885C2.97879 5.56687 3.23348 6.01514 3.60746 6.36697C3.98145 6.71881 4.45794 6.95842 4.97668 7.05549C5.49541 7.15256 6.0331 7.10274 6.52174 6.91233C7.01038 6.72191 7.42803 6.39946 7.72187 5.98574C8.01571 5.57202 8.17254 5.08562 8.17254 4.58805C8.17254 3.92082 7.8908 3.28092 7.3893 2.80912C6.8878 2.33732 6.20761 2.07227 5.49838 2.07227ZM5.49838 6.22572C5.15409 6.22572 4.81753 6.12967 4.53126 5.94972C4.24499 5.76977 4.02187 5.514 3.89012 5.21476C3.75836 4.91551 3.72389 4.58623 3.79106 4.26855C3.85823 3.95088 4.02402 3.65907 4.26747 3.43004C4.51092 3.201 4.8211 3.04503 5.15877 2.98184C5.49645 2.91865 5.84646 2.95108 6.16455 3.07503C6.48263 3.19899 6.7545 3.40889 6.94578 3.67821C7.13706 3.94752 7.23915 4.26415 7.23915 4.58805C7.23792 5.02162 7.05397 5.43705 6.72765 5.74322C6.40132 6.04939 5.95926 6.22133 5.49838 6.22133V6.22572Z" fill="black"/>
<path d="M5.49767 4.34629e-10C4.044 0.00114223 2.64989 0.543412 1.61981 1.50837C0.58973 2.47333 0.00739727 3.78256 0 5.15011C0 7.20049 1.22274 8.91719 2.1188 10.1685L2.28214 10.3968C3.17366 11.6124 4.13005 12.7847 5.14765 13.9092L5.50233 14.3L5.85702 13.9092C6.87449 12.7846 7.83088 11.6123 8.72253 10.3968L8.88587 10.1641C9.77726 8.9128 11 7.20049 11 5.15011C10.9926 3.7818 10.4096 2.4719 9.37854 1.50682C8.34745 0.541739 6.95214 -1.77185e-05 5.49767 4.34629e-10ZM8.10649 9.6592L7.93848 9.89189C7.13577 11.0247 6.0717 12.2935 5.49767 12.9214C4.94697 12.2935 3.85957 11.0247 3.05685 9.89189L2.89351 9.6592C2.06746 8.50009 0.93339 6.91511 0.93339 5.13254C0.93339 4.56866 1.05145 4.01029 1.28082 3.48932C1.5102 2.96836 1.8464 2.49499 2.27024 2.09626C2.69407 1.69753 3.19723 1.38124 3.75099 1.16545C4.30476 0.94966 4.89828 0.838594 5.49767 0.838594C6.09706 0.838594 6.69058 0.94966 7.24434 1.16545C7.7981 1.38124 8.30127 1.69753 8.7251 2.09626C9.14893 2.49499 9.48513 2.96836 9.71451 3.48932C9.94388 4.01029 10.0619 4.56866 10.0619 5.13254C10.0619 6.93267 8.93254 8.51765 8.10649 9.6592Z" fill="black"/>
</svg>
