<svg width="9" height="5" viewBox="0 0 9 5" fill="none" xmlns="http://www.w3.org/2000/svg">
<path d="M4.49294 4.49848C4.343 4.49877 4.19769 4.44649 4.08223 4.3507L0.231828 1.13807C0.100775 1.02901 0.0183608 0.872293 0.0027155 0.702393C-0.0129298 0.532492 0.0394754 0.363328 0.148402 0.232113C0.257329 0.100899 0.413856 0.0183834 0.583547 0.00271886C0.753238 -0.0129457 0.922194 0.0395238 1.05325 0.148585L4.49294 3.0271L7.93264 0.25139C7.99828 0.198018 8.07381 0.158161 8.15488 0.13411C8.23596 0.110059 8.32098 0.102288 8.40507 0.111245C8.48915 0.120201 8.57064 0.145707 8.64485 0.186298C8.71906 0.226889 8.78452 0.281764 8.83748 0.347768C8.89625 0.413833 8.94076 0.491339 8.96822 0.575428C8.99568 0.659518 9.0055 0.74838 8.99707 0.836446C8.98864 0.924513 8.96213 1.00989 8.91921 1.08722C8.87629 1.16455 8.81788 1.23218 8.74764 1.28585L4.89723 4.38925C4.77846 4.4699 4.63611 4.50836 4.49294 4.49848Z" fill="#888888"/>
</svg>
