<svg width="18" height="24" viewBox="0 0 18 24" fill="none" xmlns="http://www.w3.org/2000/svg">
<path fill-rule="evenodd" clip-rule="evenodd" d="M7.50031 19.5L15.0006 24V6C15.0006 5.20435 14.6845 4.44129 14.1219 3.87868C13.5593 3.31607 12.7962 3 12.0005 3H3.00013C2.20444 3 1.44135 3.31607 0.878716 3.87868C0.316084 4.44129 0 5.20435 0 6V24L7.50031 19.5ZM1.50006 21.351L7.50031 17.751L13.5006 21.351V6C13.5006 5.60218 13.3425 5.22064 13.0612 4.93934C12.7799 4.65804 12.3983 4.5 12.0005 4.5H3.00013C2.60228 4.5 2.22074 4.65804 1.93942 4.93934C1.6581 5.22064 1.50006 5.60218 1.50006 6V21.351Z" fill="#2FC06E"/>
<path d="M18.001 21L16.5009 20.1V3C16.5009 2.60218 16.3428 2.22064 16.0615 1.93934C15.7802 1.65804 15.3987 1.5 15.0008 1.5H3.40234C3.66565 1.04395 4.04437 0.665247 4.50043 0.401943C4.95649 0.138639 5.47383 1.33777e-05 6.00045 0L15.0008 0C15.7965 0 16.5596 0.316071 17.1222 0.87868C17.6849 1.44129 18.001 2.20435 18.001 3V21Z" fill="#2FC06E"/>
</svg>
