<svg width="24" height="20" viewBox="0 0 24 20" fill="none" xmlns="http://www.w3.org/2000/svg">
<path d="M11.7647 0L0 10.5882H3.52941V20H20V10.5882H23.5294L11.7647 0ZM11.7647 6.76471C12.4667 6.76471 13.14 7.04359 13.6365 7.54001C14.1329 8.03643 14.4118 8.70972 14.4118 9.41177C14.4118 10.1138 14.1329 10.7871 13.6365 11.2835C13.14 11.7799 12.4667 12.0588 11.7647 12.0588C11.0627 12.0588 10.3894 11.7799 9.89295 11.2835C9.39653 10.7871 9.11765 10.1138 9.11765 9.41177C9.11765 8.70972 9.39653 8.03643 9.89295 7.54001C10.3894 7.04359 11.0627 6.76471 11.7647 6.76471ZM11.7647 14.1176C13.5294 14.1176 17.0588 15 17.0588 16.7647V17.6471H6.47059V16.7647C6.47059 15 10 14.1176 11.7647 14.1176Z" fill="#18A0FB"/>
</svg>
