<?xml version="1.0" standalone="no"?>
<!DOCTYPE svg PUBLIC "-//W3C//DTD SVG 20010904//EN"
 "http://www.w3.org/TR/2001/REC-SVG-20010904/DTD/svg10.dtd">
<svg version="1.0" xmlns="http://www.w3.org/2000/svg"
 width="700.000000pt" height="700.000000pt" viewBox="0 0 700.000000 700.000000"
 preserveAspectRatio="xMidYMid meet">
<metadata>
Created by potrace 1.11, written by Peter Selinger 2001-2013
</metadata>
<g transform="translate(0.000000,700.000000) scale(0.100000,-0.100000)"
fill="#000000" stroke="none">
<path d="M81 6982 c-19 -9 -44 -30 -55 -45 l-21 -28 0 -3409 0 -3409 21 -28
c11 -15 36 -36 55 -45 32 -17 216 -18 3419 -18 3203 0 3387 1 3419 18 19 9 44
30 55 45 l21 28 0 3409 0 3409 -21 28 c-11 15 -36 36 -55 45 -32 17 -216 18
-3419 18 -3203 0 -3387 -1 -3419 -18z"/>
</g>
</svg>
